<?xml version="1.0" encoding="utf-8" standalone="no"?>
<!DOCTYPE svg PUBLIC "-//W3C//DTD SVG 1.1//EN"
  "http://www.w3.org/Graphics/SVG/1.1/DTD/svg11.dtd">
<svg xmlns:xlink="http://www.w3.org/1999/xlink" width="1728pt" height="576pt" viewBox="0 0 1728 576" xmlns="http://www.w3.org/2000/svg" version="1.1">
 <metadata>
  <rdf:RDF xmlns:dc="http://purl.org/dc/elements/1.1/" xmlns:cc="http://creativecommons.org/ns#" xmlns:rdf="http://www.w3.org/1999/02/22-rdf-syntax-ns#">
   <cc:Work>
    <dc:type rdf:resource="http://purl.org/dc/dcmitype/StillImage"/>
    <dc:date>2024-09-26T13:32:55.694151</dc:date>
    <dc:format>image/svg+xml</dc:format>
    <dc:creator>
     <cc:Agent>
      <dc:title>Matplotlib v3.9.2, https://matplotlib.org/</dc:title>
     </cc:Agent>
    </dc:creator>
   </cc:Work>
  </rdf:RDF>
 </metadata>
 <defs>
  <style type="text/css">*{stroke-linejoin: round; stroke-linecap: butt}</style>
 </defs>
 <g id="figure_1">
  <g id="patch_1">
   <path d="M 0 576 
L 1728 576 
L 1728 0 
L 0 0 
z
" style="fill: #ffffff"/>
  </g>
  <g id="axes_1">
   <g id="patch_2">
    <path d="M 50.85 530.82 
L 596.94 530.82 
L 596.94 57.6 
L 50.85 57.6 
z
" style="fill: #ffffff"/>
   </g>
   <g id="matplotlib.axis_1">
    <g id="xtick_1">
     <g id="text_1">
      <!-- 3.12.6 -->
      <g style="fill: #262626" transform="translate(104.513047 548.13) scale(0.11 -0.11)">
       <defs>
        <path id="Geist-Regular-33" d="M 1926 -102 
Q 1184 -102 768 246 
Q 352 595 320 1171 
L 890 1210 
Q 928 813 1200 624 
Q 1472 435 1926 435 
Q 2413 435 2720 636 
Q 3027 838 3027 1267 
Q 3027 1702 2732 1923 
Q 2438 2144 1933 2144 
L 1574 2144 
L 1574 2682 
L 1933 2682 
Q 2362 2682 2614 2851 
Q 2867 3021 2867 3392 
Q 2867 3744 2636 3926 
Q 2406 4109 1958 4109 
Q 1101 4109 1011 3462 
L 435 3501 
Q 499 4026 896 4336 
Q 1293 4646 1958 4646 
Q 2650 4646 3046 4316 
Q 3443 3987 3443 3418 
Q 3443 2688 2656 2445 
Q 3098 2323 3350 2012 
Q 3603 1702 3603 1267 
Q 3603 627 3142 262 
Q 2682 -102 1926 -102 
z
" transform="scale(0.015625)"/>
        <path id="Geist-Regular-2e" d="M 301 723 
L 1024 723 
L 1024 0 
L 301 0 
L 301 723 
z
" transform="scale(0.015625)"/>
        <path id="Geist-Regular-31" d="M 1203 3366 
L 256 3366 
L 256 3840 
L 640 3840 
Q 1018 3840 1168 3993 
Q 1318 4147 1318 4544 
L 1754 4544 
L 1754 0 
L 1203 0 
L 1203 3366 
z
" transform="scale(0.015625)"/>
        <path id="Geist-Regular-32" d="M 384 0 
Q 384 499 537 883 
Q 691 1267 1072 1612 
Q 1453 1958 2125 2317 
Q 2464 2496 2646 2633 
Q 2829 2771 2915 2928 
Q 3002 3085 3002 3315 
Q 3002 3674 2768 3891 
Q 2534 4109 2093 4109 
Q 1619 4109 1337 3862 
Q 1056 3616 986 3149 
L 410 3187 
Q 486 3866 924 4256 
Q 1363 4646 2093 4646 
Q 2554 4646 2890 4480 
Q 3226 4314 3402 4016 
Q 3578 3718 3578 3328 
Q 3578 2976 3462 2729 
Q 3347 2483 3081 2265 
Q 2816 2048 2330 1792 
Q 1734 1478 1408 1142 
Q 1082 806 1062 538 
L 3578 538 
L 3578 0 
L 384 0 
z
" transform="scale(0.015625)"/>
        <path id="Geist-Regular-36" d="M 1997 -102 
Q 1229 -102 806 422 
Q 384 947 384 1920 
Q 384 3155 806 3900 
Q 1229 4646 2176 4646 
Q 3283 4646 3584 3571 
L 3008 3520 
Q 2925 3808 2729 3958 
Q 2534 4109 2176 4109 
Q 1651 4109 1337 3699 
Q 1024 3290 960 2477 
Q 1133 2739 1430 2899 
Q 1728 3059 2099 3059 
Q 2541 3059 2883 2867 
Q 3226 2675 3414 2323 
Q 3603 1971 3603 1510 
Q 3603 1018 3398 653 
Q 3194 288 2829 93 
Q 2464 -102 1997 -102 
z
M 2010 435 
Q 2464 435 2745 723 
Q 3027 1011 3027 1510 
Q 3027 1978 2758 2256 
Q 2490 2534 2061 2534 
Q 1594 2534 1290 2252 
Q 986 1971 986 1510 
Q 986 1037 1264 736 
Q 1542 435 2010 435 
z
" transform="scale(0.015625)"/>
       </defs>
       <use xlink:href="#Geist-Regular-33"/>
       <use xlink:href="#Geist-Regular-2e" x="61.299988"/>
       <use xlink:href="#Geist-Regular-31" x="81.999985"/>
       <use xlink:href="#Geist-Regular-32" x="120.399979"/>
       <use xlink:href="#Geist-Regular-2e" x="182.299973"/>
       <use xlink:href="#Geist-Regular-36" x="202.999969"/>
      </g>
     </g>
    </g>
    <g id="xtick_2">
     <g id="text_2">
      <!-- 3.13.0rc2 -->
      <g style="fill: #262626" transform="translate(232.269063 548.13) scale(0.11 -0.11)">
       <defs>
        <path id="Geist-Regular-30" d="M 2144 -102 
Q 1600 -102 1193 186 
Q 787 474 566 1008 
Q 346 1542 346 2266 
Q 346 2989 566 3526 
Q 787 4064 1193 4355 
Q 1600 4646 2144 4646 
Q 2694 4646 3100 4358 
Q 3507 4070 3728 3532 
Q 3949 2995 3949 2266 
Q 3949 1542 3728 1008 
Q 3507 474 3100 186 
Q 2694 -102 2144 -102 
z
M 2144 435 
Q 2733 435 3053 912 
Q 3373 1389 3373 2266 
Q 3373 3149 3053 3629 
Q 2733 4109 2144 4109 
Q 1555 4109 1238 3629 
Q 922 3149 922 2266 
Q 922 1389 1238 912 
Q 1555 435 2144 435 
z
" transform="scale(0.015625)"/>
        <path id="Geist-Regular-72" d="M 512 3392 
L 986 3392 
L 1005 2765 
Q 1184 3392 1811 3392 
L 2144 3392 
L 2144 2880 
L 1818 2880 
Q 1050 2880 1050 2048 
L 1050 0 
L 512 0 
L 512 3392 
z
" transform="scale(0.015625)"/>
        <path id="Geist-Regular-63" d="M 1856 -77 
Q 1389 -77 1037 140 
Q 685 358 493 761 
Q 301 1165 301 1696 
Q 301 2227 493 2630 
Q 685 3034 1037 3251 
Q 1389 3469 1856 3469 
Q 2445 3469 2829 3161 
Q 3213 2854 3296 2291 
L 2733 2253 
Q 2675 2586 2441 2771 
Q 2208 2957 1856 2957 
Q 1389 2957 1126 2624 
Q 864 2291 864 1696 
Q 864 1101 1126 768 
Q 1389 435 1856 435 
Q 2208 435 2441 630 
Q 2675 826 2733 1203 
L 3296 1165 
Q 3206 595 2822 259 
Q 2438 -77 1856 -77 
z
" transform="scale(0.015625)"/>
       </defs>
       <use xlink:href="#Geist-Regular-33"/>
       <use xlink:href="#Geist-Regular-2e" x="61.299988"/>
       <use xlink:href="#Geist-Regular-31" x="81.999985"/>
       <use xlink:href="#Geist-Regular-33" x="120.399979"/>
       <use xlink:href="#Geist-Regular-2e" x="181.699966"/>
       <use xlink:href="#Geist-Regular-30" x="202.399963"/>
       <use xlink:href="#Geist-Regular-72" x="269.499954"/>
       <use xlink:href="#Geist-Regular-63" x="307.699951"/>
       <use xlink:href="#Geist-Regular-32" x="362.899948"/>
      </g>
     </g>
    </g>
    <g id="xtick_3">
     <g id="text_3">
      <!-- 3.13.0rc2t -->
      <g style="fill: #262626" transform="translate(366.619062 548.13) scale(0.11 -0.11)">
       <defs>
        <path id="Geist-Regular-74" d="M 1754 0 
Q 1293 0 1072 211 
Q 851 422 851 870 
L 851 2918 
L 352 2918 
L 352 3392 
L 851 3392 
L 851 4186 
L 1389 4186 
L 1389 3392 
L 2291 3392 
L 2291 2918 
L 1389 2918 
L 1389 883 
Q 1389 659 1488 566 
Q 1587 474 1805 474 
L 2291 474 
L 2291 0 
L 1754 0 
z
" transform="scale(0.015625)"/>
       </defs>
       <use xlink:href="#Geist-Regular-33"/>
       <use xlink:href="#Geist-Regular-2e" x="61.299988"/>
       <use xlink:href="#Geist-Regular-31" x="81.999985"/>
       <use xlink:href="#Geist-Regular-33" x="120.399979"/>
       <use xlink:href="#Geist-Regular-2e" x="181.699966"/>
       <use xlink:href="#Geist-Regular-30" x="202.399963"/>
       <use xlink:href="#Geist-Regular-72" x="269.499954"/>
       <use xlink:href="#Geist-Regular-63" x="307.699951"/>
       <use xlink:href="#Geist-Regular-32" x="362.899948"/>
       <use xlink:href="#Geist-Regular-74" x="424.799942"/>
      </g>
     </g>
    </g>
    <g id="xtick_4">
     <g id="text_4">
      <!-- 3.13.0rc2t-g1 -->
      <g style="fill: #262626" transform="translate(495.408047 548.305313) scale(0.11 -0.11)">
       <defs>
        <path id="Geist-Regular-2d" d="M 301 2118 
L 2419 2118 
L 2419 1613 
L 301 1613 
L 301 2118 
z
" transform="scale(0.015625)"/>
        <path id="Geist-Regular-67" d="M 1818 -1037 
Q 1274 -1037 890 -768 
Q 506 -499 397 -51 
L 960 -13 
Q 1043 -269 1241 -397 
Q 1440 -525 1818 -525 
Q 2285 -525 2528 -339 
Q 2771 -154 2771 218 
L 2771 768 
Q 2643 499 2377 339 
Q 2112 179 1779 179 
Q 1350 179 1014 387 
Q 678 595 489 969 
Q 301 1344 301 1824 
Q 301 2304 486 2678 
Q 672 3053 1001 3261 
Q 1331 3469 1754 3469 
Q 2112 3469 2397 3302 
Q 2682 3136 2797 2854 
L 2797 3392 
L 3309 3392 
L 3309 230 
Q 3309 -365 2912 -701 
Q 2515 -1037 1818 -1037 
z
M 1805 691 
Q 2253 691 2512 1004 
Q 2771 1318 2771 1856 
Q 2771 2362 2508 2659 
Q 2246 2957 1805 2957 
Q 1363 2957 1113 2653 
Q 864 2349 864 1824 
Q 864 1299 1117 995 
Q 1370 691 1805 691 
z
" transform="scale(0.015625)"/>
       </defs>
       <use xlink:href="#Geist-Regular-33"/>
       <use xlink:href="#Geist-Regular-2e" x="61.299988"/>
       <use xlink:href="#Geist-Regular-31" x="81.999985"/>
       <use xlink:href="#Geist-Regular-33" x="120.399979"/>
       <use xlink:href="#Geist-Regular-2e" x="181.699966"/>
       <use xlink:href="#Geist-Regular-30" x="202.399963"/>
       <use xlink:href="#Geist-Regular-72" x="269.499954"/>
       <use xlink:href="#Geist-Regular-63" x="307.699951"/>
       <use xlink:href="#Geist-Regular-32" x="362.899948"/>
       <use xlink:href="#Geist-Regular-74" x="424.799942"/>
       <use xlink:href="#Geist-Regular-2d" x="464.299927"/>
       <use xlink:href="#Geist-Regular-67" x="506.799911"/>
       <use xlink:href="#Geist-Regular-31" x="566.499908"/>
      </g>
     </g>
    </g>
    <g id="text_5">
     <!-- Python Runtime -->
     <g style="fill: #262626" transform="translate(278.990625 562.618906) scale(0.12 -0.12)">
      <defs>
       <path id="Geist-Regular-50" d="M 589 4544 
L 2221 4544 
Q 2976 4544 3401 4179 
Q 3827 3814 3827 3168 
Q 3827 2509 3401 2137 
Q 2976 1766 2221 1766 
L 1139 1766 
L 1139 0 
L 589 0 
L 589 4544 
z
M 2221 2304 
Q 3251 2304 3251 3168 
Q 3251 4006 2221 4006 
L 1139 4006 
L 1139 2304 
L 2221 2304 
z
" transform="scale(0.015625)"/>
       <path id="Geist-Regular-79" d="M 659 -486 
L 1050 -486 
Q 1222 -486 1308 -432 
Q 1395 -378 1446 -256 
L 1568 64 
L 1382 64 
L 141 3392 
L 730 3392 
L 1741 563 
L 2707 3392 
L 3296 3392 
L 1920 -429 
Q 1824 -704 1632 -832 
Q 1440 -960 1101 -960 
L 659 -960 
L 659 -486 
z
" transform="scale(0.015625)"/>
       <path id="Geist-Regular-68" d="M 512 4544 
L 1050 4544 
L 1050 2861 
Q 1178 3162 1443 3315 
Q 1709 3469 2074 3469 
Q 2611 3469 2908 3117 
Q 3206 2765 3206 2182 
L 3206 0 
L 2669 0 
L 2669 2029 
Q 2669 2995 1958 2995 
Q 1536 2995 1293 2739 
Q 1050 2483 1050 2022 
L 1050 0 
L 512 0 
L 512 4544 
z
" transform="scale(0.015625)"/>
       <path id="Geist-Regular-6f" d="M 1856 -77 
Q 1389 -77 1037 140 
Q 685 358 493 758 
Q 301 1158 301 1696 
Q 301 2234 493 2634 
Q 685 3034 1037 3251 
Q 1389 3469 1856 3469 
Q 2317 3469 2669 3251 
Q 3021 3034 3213 2634 
Q 3405 2234 3405 1696 
Q 3405 1158 3213 758 
Q 3021 358 2669 140 
Q 2317 -77 1856 -77 
z
M 1856 435 
Q 2323 435 2582 771 
Q 2842 1107 2842 1696 
Q 2842 2285 2582 2621 
Q 2323 2957 1856 2957 
Q 1389 2957 1126 2624 
Q 864 2291 864 1696 
Q 864 1101 1126 768 
Q 1389 435 1856 435 
z
" transform="scale(0.015625)"/>
       <path id="Geist-Regular-6e" d="M 512 3392 
L 1005 3392 
L 1018 2784 
Q 1146 3123 1421 3296 
Q 1696 3469 2061 3469 
Q 2618 3469 2912 3110 
Q 3206 2752 3206 2182 
L 3206 0 
L 2669 0 
L 2669 2029 
Q 2669 2509 2496 2752 
Q 2323 2995 1946 2995 
Q 1542 2995 1296 2742 
Q 1050 2490 1050 2029 
L 1050 0 
L 512 0 
L 512 3392 
z
" transform="scale(0.015625)"/>
       <path id="Geist-Regular-20" transform="scale(0.015625)"/>
       <path id="Geist-Regular-52" d="M 589 4544 
L 2310 4544 
Q 3027 4544 3443 4173 
Q 3859 3802 3859 3168 
Q 3859 2790 3635 2505 
Q 3411 2221 3091 2125 
Q 3712 2016 3776 1338 
L 3904 0 
L 3347 0 
L 3232 1280 
Q 3206 1568 3027 1699 
Q 2848 1830 2458 1830 
L 1139 1830 
L 1139 0 
L 589 0 
L 589 4544 
z
M 2381 2368 
Q 2797 2368 3040 2579 
Q 3283 2790 3283 3181 
Q 3283 3578 3030 3792 
Q 2778 4006 2310 4006 
L 1139 4006 
L 1139 2368 
L 2381 2368 
z
" transform="scale(0.015625)"/>
       <path id="Geist-Regular-75" d="M 1626 -77 
Q 1114 -77 813 265 
Q 512 608 512 1210 
L 512 3392 
L 1050 3392 
L 1050 1357 
Q 1050 864 1226 630 
Q 1402 397 1766 397 
Q 2170 397 2400 656 
Q 2630 915 2630 1370 
L 2630 3392 
L 3168 3392 
L 3168 0 
L 2656 0 
L 2656 550 
Q 2515 250 2252 86 
Q 1990 -77 1626 -77 
z
" transform="scale(0.015625)"/>
       <path id="Geist-Regular-69" d="M 512 3392 
L 1050 3392 
L 1050 0 
L 512 0 
L 512 3392 
z
M 499 4550 
L 1062 4550 
L 1062 3923 
L 499 3923 
L 499 4550 
z
" transform="scale(0.015625)"/>
       <path id="Geist-Regular-6d" d="M 512 3392 
L 1005 3392 
L 1018 2797 
Q 1146 3110 1395 3289 
Q 1645 3469 1971 3469 
Q 2355 3469 2617 3283 
Q 2880 3098 2989 2758 
Q 3098 3104 3354 3286 
Q 3610 3469 3981 3469 
Q 4518 3469 4809 3133 
Q 5101 2797 5101 2182 
L 5101 0 
L 4563 0 
L 4563 2067 
Q 4563 2528 4384 2761 
Q 4205 2995 3853 2995 
Q 3494 2995 3283 2739 
Q 3072 2483 3072 2029 
L 3072 0 
L 2534 0 
L 2534 2029 
Q 2534 2995 1837 2995 
Q 1478 2995 1264 2736 
Q 1050 2477 1050 2029 
L 1050 0 
L 512 0 
L 512 3392 
z
" transform="scale(0.015625)"/>
       <path id="Geist-Regular-65" d="M 1856 -77 
Q 1382 -77 1030 140 
Q 678 358 489 758 
Q 301 1158 301 1696 
Q 301 2227 489 2630 
Q 678 3034 1024 3251 
Q 1370 3469 1830 3469 
Q 2272 3469 2611 3261 
Q 2950 3053 3139 2649 
Q 3328 2246 3328 1690 
L 3328 1530 
L 864 1530 
Q 890 992 1149 713 
Q 1408 435 1856 435 
Q 2182 435 2396 585 
Q 2611 736 2701 1005 
L 3277 960 
Q 3142 493 2761 208 
Q 2381 -77 1856 -77 
z
M 2739 2003 
Q 2701 2477 2461 2717 
Q 2221 2957 1830 2957 
Q 1434 2957 1181 2713 
Q 928 2470 864 2003 
L 2739 2003 
z
" transform="scale(0.015625)"/>
      </defs>
      <use xlink:href="#Geist-Regular-50"/>
      <use xlink:href="#Geist-Regular-79" x="64.999985"/>
      <use xlink:href="#Geist-Regular-74" x="118.699982"/>
      <use xlink:href="#Geist-Regular-68" x="158.199966"/>
      <use xlink:href="#Geist-Regular-6f" x="216.299957"/>
      <use xlink:href="#Geist-Regular-6e" x="274.199951"/>
      <use xlink:href="#Geist-Regular-20" x="332.299942"/>
      <use xlink:href="#Geist-Regular-52" x="357.299927"/>
      <use xlink:href="#Geist-Regular-75" x="424.499924"/>
      <use xlink:href="#Geist-Regular-6e" x="481.999908"/>
      <use xlink:href="#Geist-Regular-74" x="540.099899"/>
      <use xlink:href="#Geist-Regular-69" x="579.599884"/>
      <use xlink:href="#Geist-Regular-6d" x="603.999878"/>
      <use xlink:href="#Geist-Regular-65" x="691.69986"/>
     </g>
    </g>
   </g>
   <g id="matplotlib.axis_2">
    <g id="ytick_1">
     <g id="line2d_1">
      <path d="M 50.85 530.82 
L 596.94 530.82 
" clip-path="url(#pa3fc462301)" style="fill: none; stroke: #cccccc; stroke-linecap: round"/>
     </g>
     <g id="text_6">
      <!-- 0 -->
      <g style="fill: #262626" transform="translate(33.969687 534.725) scale(0.11 -0.11)">
       <use xlink:href="#Geist-Regular-30"/>
      </g>
     </g>
    </g>
    <g id="ytick_2">
     <g id="line2d_2">
      <path d="M 50.85 453.357105 
L 596.94 453.357105 
" clip-path="url(#pa3fc462301)" style="fill: none; stroke: #cccccc; stroke-linecap: round"/>
     </g>
     <g id="text_7">
      <!-- 10 -->
      <g style="fill: #262626" transform="translate(29.745 457.262105) scale(0.11 -0.11)">
       <use xlink:href="#Geist-Regular-31"/>
       <use xlink:href="#Geist-Regular-30" x="38.399994"/>
      </g>
     </g>
    </g>
    <g id="ytick_3">
     <g id="line2d_3">
      <path d="M 50.85 375.894209 
L 596.94 375.894209 
" clip-path="url(#pa3fc462301)" style="fill: none; stroke: #cccccc; stroke-linecap: round"/>
     </g>
     <g id="text_8">
      <!-- 20 -->
      <g style="fill: #262626" transform="translate(27.16 379.799209) scale(0.11 -0.11)">
       <use xlink:href="#Geist-Regular-32"/>
       <use xlink:href="#Geist-Regular-30" x="61.899994"/>
      </g>
     </g>
    </g>
    <g id="ytick_4">
     <g id="line2d_4">
      <path d="M 50.85 298.431314 
L 596.94 298.431314 
" clip-path="url(#pa3fc462301)" style="fill: none; stroke: #cccccc; stroke-linecap: round"/>
     </g>
     <g id="text_9">
      <!-- 30 -->
      <g style="fill: #262626" transform="translate(27.227031 302.336314) scale(0.11 -0.11)">
       <use xlink:href="#Geist-Regular-33"/>
       <use xlink:href="#Geist-Regular-30" x="61.299988"/>
      </g>
     </g>
    </g>
    <g id="ytick_5">
     <g id="line2d_5">
      <path d="M 50.85 220.968419 
L 596.94 220.968419 
" clip-path="url(#pa3fc462301)" style="fill: none; stroke: #cccccc; stroke-linecap: round"/>
     </g>
     <g id="text_10">
      <!-- 40 -->
      <g style="fill: #262626" transform="translate(26.984687 224.873419) scale(0.11 -0.11)">
       <defs>
        <path id="Geist-Regular-34" d="M 2630 986 
L 320 986 
L 320 1485 
L 2592 4544 
L 3181 4544 
L 3181 1523 
L 3744 1523 
L 3744 986 
L 3181 986 
L 3181 0 
L 2630 0 
L 2630 986 
z
M 2630 1523 
L 2630 3699 
L 986 1523 
L 2630 1523 
z
" transform="scale(0.015625)"/>
       </defs>
       <use xlink:href="#Geist-Regular-34"/>
       <use xlink:href="#Geist-Regular-30" x="63.499985"/>
      </g>
     </g>
    </g>
    <g id="ytick_6">
     <g id="line2d_6">
      <path d="M 50.85 143.505523 
L 596.94 143.505523 
" clip-path="url(#pa3fc462301)" style="fill: none; stroke: #cccccc; stroke-linecap: round"/>
     </g>
     <g id="text_11">
      <!-- 50 -->
      <g style="fill: #262626" transform="translate(27.084375 147.410523) scale(0.11 -0.11)">
       <defs>
        <path id="Geist-Regular-35" d="M 1997 -102 
Q 1286 -102 860 246 
Q 435 595 384 1171 
L 960 1210 
Q 1005 832 1280 633 
Q 1555 435 1997 435 
Q 2477 435 2758 707 
Q 3040 979 3040 1459 
Q 3040 1946 2761 2224 
Q 2483 2502 1984 2502 
Q 1664 2502 1411 2364 
Q 1158 2227 1050 1990 
L 461 1990 
L 762 4544 
L 3309 4544 
L 3309 4006 
L 1267 4006 
L 1101 2637 
Q 1274 2829 1533 2928 
Q 1792 3027 2086 3027 
Q 2534 3027 2883 2825 
Q 3232 2624 3424 2265 
Q 3616 1907 3616 1459 
Q 3616 1005 3411 649 
Q 3206 294 2838 96 
Q 2470 -102 1997 -102 
z
" transform="scale(0.015625)"/>
       </defs>
       <use xlink:href="#Geist-Regular-35"/>
       <use xlink:href="#Geist-Regular-30" x="62.599991"/>
      </g>
     </g>
    </g>
    <g id="ytick_7">
     <g id="line2d_7">
      <path d="M 50.85 66.042628 
L 596.94 66.042628 
" clip-path="url(#pa3fc462301)" style="fill: none; stroke: #cccccc; stroke-linecap: round"/>
     </g>
     <g id="text_12">
      <!-- 60 -->
      <g style="fill: #262626" transform="translate(27.105 69.947628) scale(0.11 -0.11)">
       <use xlink:href="#Geist-Regular-36"/>
       <use xlink:href="#Geist-Regular-30" x="62.399994"/>
      </g>
     </g>
    </g>
    <g id="text_13">
     <!-- Time (s) -->
     <g style="fill: #262626" transform="translate(21.184687 315.966562) rotate(-90) scale(0.12 -0.12)">
      <defs>
       <path id="Geist-Regular-54" d="M 1574 4006 
L 160 4006 
L 160 4544 
L 3539 4544 
L 3539 4006 
L 2125 4006 
L 2125 0 
L 1574 0 
L 1574 4006 
z
" transform="scale(0.015625)"/>
       <path id="Geist-Regular-28" d="M 1203 -704 
Q 314 634 314 2048 
Q 314 3469 1203 4800 
L 1683 4800 
Q 870 3418 870 2048 
Q 870 691 1683 -704 
L 1203 -704 
z
" transform="scale(0.015625)"/>
       <path id="Geist-Regular-73" d="M 1766 -77 
Q 1101 -77 720 236 
Q 339 550 301 1069 
L 864 1107 
Q 966 435 1766 435 
Q 2125 435 2326 550 
Q 2528 666 2528 909 
Q 2528 1050 2461 1136 
Q 2394 1222 2211 1289 
Q 2029 1357 1664 1421 
Q 954 1549 669 1782 
Q 384 2016 384 2432 
Q 384 2893 723 3181 
Q 1062 3469 1664 3469 
Q 2253 3469 2598 3161 
Q 2944 2854 3027 2381 
L 2464 2342 
Q 2406 2624 2198 2790 
Q 1990 2957 1658 2957 
Q 1306 2957 1126 2819 
Q 947 2682 947 2458 
Q 947 2214 1126 2092 
Q 1306 1971 1766 1894 
Q 2285 1805 2569 1680 
Q 2854 1555 2972 1372 
Q 3091 1190 3091 909 
Q 3091 448 2716 185 
Q 2342 -77 1766 -77 
z
" transform="scale(0.015625)"/>
       <path id="Geist-Regular-29" d="M 173 -704 
Q 986 672 986 2048 
Q 986 3430 173 4800 
L 653 4800 
Q 1542 3482 1542 2048 
Q 1542 614 653 -704 
L 173 -704 
z
" transform="scale(0.015625)"/>
      </defs>
      <use xlink:href="#Geist-Regular-54"/>
      <use xlink:href="#Geist-Regular-69" x="57.799988"/>
      <use xlink:href="#Geist-Regular-6d" x="82.199982"/>
      <use xlink:href="#Geist-Regular-65" x="169.899963"/>
      <use xlink:href="#Geist-Regular-20" x="226.59996"/>
      <use xlink:href="#Geist-Regular-28" x="251.599945"/>
      <use xlink:href="#Geist-Regular-73" x="280.59993"/>
      <use xlink:href="#Geist-Regular-29" x="333.599915"/>
     </g>
    </g>
   </g>
   <g id="patch_3">
    <path d="M 91.80675 254.175973 
L 146.41575 254.175973 
L 146.41575 243.803098 
L 91.80675 243.803098 
L 91.80675 254.175973 
z
" clip-path="url(#pa3fc462301)" style="fill: #5875a4; stroke: #4c4c4c; stroke-linejoin: miter"/>
   </g>
   <g id="line2d_8">
    <path d="M 119.11125 254.175973 
L 119.11125 261.495307 
" clip-path="url(#pa3fc462301)" style="fill: none; stroke: #4c4c4c"/>
   </g>
   <g id="line2d_9">
    <path d="M 119.11125 243.803098 
L 119.11125 234.52169 
" clip-path="url(#pa3fc462301)" style="fill: none; stroke: #4c4c4c"/>
   </g>
   <g id="line2d_10">
    <path d="M 105.459 261.495307 
L 132.7635 261.495307 
" clip-path="url(#pa3fc462301)" style="fill: none; stroke: #4c4c4c; stroke-linecap: round"/>
   </g>
   <g id="line2d_11">
    <path d="M 105.459 234.52169 
L 132.7635 234.52169 
" clip-path="url(#pa3fc462301)" style="fill: none; stroke: #4c4c4c; stroke-linecap: round"/>
   </g>
   <g id="patch_4">
    <path d="M 228.32925 232.135424 
L 282.93825 232.135424 
L 282.93825 214.144725 
L 228.32925 214.144725 
L 228.32925 232.135424 
z
" clip-path="url(#pa3fc462301)" style="fill: #cc8963; stroke: #5b5b5b; stroke-linejoin: miter"/>
   </g>
   <g id="line2d_12">
    <path d="M 255.63375 232.135424 
L 255.63375 235.884522 
" clip-path="url(#pa3fc462301)" style="fill: none; stroke: #5b5b5b"/>
   </g>
   <g id="line2d_13">
    <path d="M 255.63375 214.144725 
L 255.63375 206.824871 
" clip-path="url(#pa3fc462301)" style="fill: none; stroke: #5b5b5b"/>
   </g>
   <g id="line2d_14">
    <path d="M 241.9815 235.884522 
L 269.286 235.884522 
" clip-path="url(#pa3fc462301)" style="fill: none; stroke: #5b5b5b; stroke-linecap: round"/>
   </g>
   <g id="line2d_15">
    <path d="M 241.9815 206.824871 
L 269.286 206.824871 
" clip-path="url(#pa3fc462301)" style="fill: none; stroke: #5b5b5b; stroke-linecap: round"/>
   </g>
   <g id="patch_5">
    <path d="M 364.85175 166.075197 
L 419.46075 166.075197 
L 419.46075 150.368881 
L 364.85175 150.368881 
L 364.85175 166.075197 
z
" clip-path="url(#pa3fc462301)" style="fill: #5f9e6e; stroke: #4c4c4c; stroke-linejoin: miter"/>
   </g>
   <g id="line2d_16">
    <path d="M 392.15625 166.075197 
L 392.15625 177.46609 
" clip-path="url(#pa3fc462301)" style="fill: none; stroke: #4c4c4c"/>
   </g>
   <g id="line2d_17">
    <path d="M 392.15625 150.368881 
L 392.15625 131.583897 
" clip-path="url(#pa3fc462301)" style="fill: none; stroke: #4c4c4c"/>
   </g>
   <g id="line2d_18">
    <path d="M 378.504 177.46609 
L 405.8085 177.46609 
" clip-path="url(#pa3fc462301)" style="fill: none; stroke: #4c4c4c; stroke-linecap: round"/>
   </g>
   <g id="line2d_19">
    <path d="M 378.504 131.583897 
L 405.8085 131.583897 
" clip-path="url(#pa3fc462301)" style="fill: none; stroke: #4c4c4c; stroke-linecap: round"/>
   </g>
   <g id="patch_6">
    <path d="M 501.37425 172.446426 
L 555.98325 172.446426 
L 555.98325 146.160093 
L 501.37425 146.160093 
L 501.37425 172.446426 
z
" clip-path="url(#pa3fc462301)" style="fill: #b55d60; stroke: #525252; stroke-linejoin: miter"/>
   </g>
   <g id="line2d_20">
    <path d="M 528.67875 172.446426 
L 528.67875 177.3296 
" clip-path="url(#pa3fc462301)" style="fill: none; stroke: #525252"/>
   </g>
   <g id="line2d_21">
    <path d="M 528.67875 146.160093 
L 528.67875 134.61345 
" clip-path="url(#pa3fc462301)" style="fill: none; stroke: #525252"/>
   </g>
   <g id="line2d_22">
    <path d="M 515.0265 177.3296 
L 542.331 177.3296 
" clip-path="url(#pa3fc462301)" style="fill: none; stroke: #525252; stroke-linecap: round"/>
   </g>
   <g id="line2d_23">
    <path d="M 515.0265 134.61345 
L 542.331 134.61345 
" clip-path="url(#pa3fc462301)" style="fill: none; stroke: #525252; stroke-linecap: round"/>
   </g>
   <g id="line2d_24">
    <path d="M 91.80675 248.697159 
L 146.41575 248.697159 
" clip-path="url(#pa3fc462301)" style="fill: none; stroke: #4c4c4c"/>
   </g>
   <g id="line2d_25">
    <path d="M 228.32925 226.393537 
L 282.93825 226.393537 
" clip-path="url(#pa3fc462301)" style="fill: none; stroke: #5b5b5b"/>
   </g>
   <g id="line2d_26">
    <path d="M 364.85175 159.937652 
L 419.46075 159.937652 
" clip-path="url(#pa3fc462301)" style="fill: none; stroke: #4c4c4c"/>
   </g>
   <g id="line2d_27">
    <path d="M 501.37425 167.266304 
L 555.98325 167.266304 
" clip-path="url(#pa3fc462301)" style="fill: none; stroke: #525252"/>
   </g>
   <g id="patch_7">
    <path d="M 50.85 530.82 
L 50.85 57.6 
" style="fill: none; stroke: #cccccc; stroke-width: 1.25; stroke-linejoin: miter; stroke-linecap: square"/>
   </g>
   <g id="patch_8">
    <path d="M 50.85 530.82 
L 596.94 530.82 
" style="fill: none; stroke: #cccccc; stroke-width: 1.25; stroke-linejoin: miter; stroke-linecap: square"/>
   </g>
   <g id="text_14">
    <!-- Mode = single -->
    <g style="fill: #262626" transform="translate(284.389688 51.6) scale(0.12 -0.12)">
     <defs>
      <path id="Geist-Regular-4d" d="M 589 4544 
L 1357 4544 
L 2810 602 
L 4256 4544 
L 5024 4544 
L 5024 0 
L 4474 0 
L 4474 3520 
L 3174 0 
L 2438 0 
L 1139 3520 
L 1139 0 
L 589 0 
L 589 4544 
z
" transform="scale(0.015625)"/>
      <path id="Geist-Regular-64" d="M 1734 -77 
Q 1299 -77 972 140 
Q 646 358 473 758 
Q 301 1158 301 1696 
Q 301 2234 473 2634 
Q 646 3034 972 3251 
Q 1299 3469 1734 3469 
Q 2080 3469 2358 3321 
Q 2637 3174 2778 2918 
L 2778 4544 
L 3315 4544 
L 3315 0 
L 2829 0 
L 2810 512 
Q 2669 237 2381 80 
Q 2093 -77 1734 -77 
z
M 1843 435 
Q 2291 435 2534 771 
Q 2778 1107 2778 1696 
Q 2778 2291 2534 2624 
Q 2291 2957 1843 2957 
Q 1395 2957 1129 2621 
Q 864 2285 864 1696 
Q 864 1114 1129 774 
Q 1395 435 1843 435 
z
" transform="scale(0.015625)"/>
      <path id="Geist-Regular-3d" d="M 589 2822 
L 3635 2822 
L 3635 2323 
L 589 2323 
L 589 2822 
z
M 589 1504 
L 3635 1504 
L 3635 1005 
L 589 1005 
L 589 1504 
z
" transform="scale(0.015625)"/>
      <path id="Geist-Regular-6c" d="M 1184 0 
Q 870 0 691 157 
Q 512 314 512 640 
L 518 4544 
L 1056 4544 
L 1056 685 
Q 1056 474 1267 474 
L 1562 474 
L 1562 0 
L 1184 0 
z
" transform="scale(0.015625)"/>
     </defs>
     <use xlink:href="#Geist-Regular-4d"/>
     <use xlink:href="#Geist-Regular-6f" x="87.699982"/>
     <use xlink:href="#Geist-Regular-64" x="145.599976"/>
     <use xlink:href="#Geist-Regular-65" x="205.399963"/>
     <use xlink:href="#Geist-Regular-20" x="262.09996"/>
     <use xlink:href="#Geist-Regular-3d" x="287.099945"/>
     <use xlink:href="#Geist-Regular-20" x="353.09993"/>
     <use xlink:href="#Geist-Regular-73" x="378.099915"/>
     <use xlink:href="#Geist-Regular-69" x="431.099899"/>
     <use xlink:href="#Geist-Regular-6e" x="455.499893"/>
     <use xlink:href="#Geist-Regular-67" x="513.599884"/>
     <use xlink:href="#Geist-Regular-6c" x="573.299881"/>
     <use xlink:href="#Geist-Regular-65" x="601.699875"/>
    </g>
   </g>
  </g>
  <g id="axes_2">
   <g id="patch_9">
    <path d="M 609.9 530.82 
L 1155.99 530.82 
L 1155.99 57.6 
L 609.9 57.6 
z
" style="fill: #ffffff"/>
   </g>
   <g id="matplotlib.axis_3">
    <g id="xtick_5">
     <g id="text_15">
      <!-- 3.12.6 -->
      <g style="fill: #262626" transform="translate(663.563047 548.13) scale(0.11 -0.11)">
       <use xlink:href="#Geist-Regular-33"/>
       <use xlink:href="#Geist-Regular-2e" x="61.299988"/>
       <use xlink:href="#Geist-Regular-31" x="81.999985"/>
       <use xlink:href="#Geist-Regular-32" x="120.399979"/>
       <use xlink:href="#Geist-Regular-2e" x="182.299973"/>
       <use xlink:href="#Geist-Regular-36" x="202.999969"/>
      </g>
     </g>
    </g>
    <g id="xtick_6">
     <g id="text_16">
      <!-- 3.13.0rc2 -->
      <g style="fill: #262626" transform="translate(791.319063 548.13) scale(0.11 -0.11)">
       <use xlink:href="#Geist-Regular-33"/>
       <use xlink:href="#Geist-Regular-2e" x="61.299988"/>
       <use xlink:href="#Geist-Regular-31" x="81.999985"/>
       <use xlink:href="#Geist-Regular-33" x="120.399979"/>
       <use xlink:href="#Geist-Regular-2e" x="181.699966"/>
       <use xlink:href="#Geist-Regular-30" x="202.399963"/>
       <use xlink:href="#Geist-Regular-72" x="269.499954"/>
       <use xlink:href="#Geist-Regular-63" x="307.699951"/>
       <use xlink:href="#Geist-Regular-32" x="362.899948"/>
      </g>
     </g>
    </g>
    <g id="xtick_7">
     <g id="text_17">
      <!-- 3.13.0rc2t -->
      <g style="fill: #262626" transform="translate(925.669063 548.13) scale(0.11 -0.11)">
       <use xlink:href="#Geist-Regular-33"/>
       <use xlink:href="#Geist-Regular-2e" x="61.299988"/>
       <use xlink:href="#Geist-Regular-31" x="81.999985"/>
       <use xlink:href="#Geist-Regular-33" x="120.399979"/>
       <use xlink:href="#Geist-Regular-2e" x="181.699966"/>
       <use xlink:href="#Geist-Regular-30" x="202.399963"/>
       <use xlink:href="#Geist-Regular-72" x="269.499954"/>
       <use xlink:href="#Geist-Regular-63" x="307.699951"/>
       <use xlink:href="#Geist-Regular-32" x="362.899948"/>
       <use xlink:href="#Geist-Regular-74" x="424.799942"/>
      </g>
     </g>
    </g>
    <g id="xtick_8">
     <g id="text_18">
      <!-- 3.13.0rc2t-g1 -->
      <g style="fill: #262626" transform="translate(1054.458047 548.305313) scale(0.11 -0.11)">
       <use xlink:href="#Geist-Regular-33"/>
       <use xlink:href="#Geist-Regular-2e" x="61.299988"/>
       <use xlink:href="#Geist-Regular-31" x="81.999985"/>
       <use xlink:href="#Geist-Regular-33" x="120.399979"/>
       <use xlink:href="#Geist-Regular-2e" x="181.699966"/>
       <use xlink:href="#Geist-Regular-30" x="202.399963"/>
       <use xlink:href="#Geist-Regular-72" x="269.499954"/>
       <use xlink:href="#Geist-Regular-63" x="307.699951"/>
       <use xlink:href="#Geist-Regular-32" x="362.899948"/>
       <use xlink:href="#Geist-Regular-74" x="424.799942"/>
       <use xlink:href="#Geist-Regular-2d" x="464.299927"/>
       <use xlink:href="#Geist-Regular-67" x="506.799911"/>
       <use xlink:href="#Geist-Regular-31" x="566.499908"/>
      </g>
     </g>
    </g>
    <g id="text_19">
     <!-- Python Runtime -->
     <g style="fill: #262626" transform="translate(838.040625 562.618906) scale(0.12 -0.12)">
      <use xlink:href="#Geist-Regular-50"/>
      <use xlink:href="#Geist-Regular-79" x="64.999985"/>
      <use xlink:href="#Geist-Regular-74" x="118.699982"/>
      <use xlink:href="#Geist-Regular-68" x="158.199966"/>
      <use xlink:href="#Geist-Regular-6f" x="216.299957"/>
      <use xlink:href="#Geist-Regular-6e" x="274.199951"/>
      <use xlink:href="#Geist-Regular-20" x="332.299942"/>
      <use xlink:href="#Geist-Regular-52" x="357.299927"/>
      <use xlink:href="#Geist-Regular-75" x="424.499924"/>
      <use xlink:href="#Geist-Regular-6e" x="481.999908"/>
      <use xlink:href="#Geist-Regular-74" x="540.099899"/>
      <use xlink:href="#Geist-Regular-69" x="579.599884"/>
      <use xlink:href="#Geist-Regular-6d" x="603.999878"/>
      <use xlink:href="#Geist-Regular-65" x="691.69986"/>
     </g>
    </g>
   </g>
   <g id="matplotlib.axis_4">
    <g id="ytick_8">
     <g id="line2d_28">
      <path d="M 609.9 530.82 
L 1155.99 530.82 
" clip-path="url(#p3d87a6046b)" style="fill: none; stroke: #cccccc; stroke-linecap: round"/>
     </g>
    </g>
    <g id="ytick_9">
     <g id="line2d_29">
      <path d="M 609.9 453.357105 
L 1155.99 453.357105 
" clip-path="url(#p3d87a6046b)" style="fill: none; stroke: #cccccc; stroke-linecap: round"/>
     </g>
    </g>
    <g id="ytick_10">
     <g id="line2d_30">
      <path d="M 609.9 375.894209 
L 1155.99 375.894209 
" clip-path="url(#p3d87a6046b)" style="fill: none; stroke: #cccccc; stroke-linecap: round"/>
     </g>
    </g>
    <g id="ytick_11">
     <g id="line2d_31">
      <path d="M 609.9 298.431314 
L 1155.99 298.431314 
" clip-path="url(#p3d87a6046b)" style="fill: none; stroke: #cccccc; stroke-linecap: round"/>
     </g>
    </g>
    <g id="ytick_12">
     <g id="line2d_32">
      <path d="M 609.9 220.968419 
L 1155.99 220.968419 
" clip-path="url(#p3d87a6046b)" style="fill: none; stroke: #cccccc; stroke-linecap: round"/>
     </g>
    </g>
    <g id="ytick_13">
     <g id="line2d_33">
      <path d="M 609.9 143.505523 
L 1155.99 143.505523 
" clip-path="url(#p3d87a6046b)" style="fill: none; stroke: #cccccc; stroke-linecap: round"/>
     </g>
    </g>
    <g id="ytick_14">
     <g id="line2d_34">
      <path d="M 609.9 66.042628 
L 1155.99 66.042628 
" clip-path="url(#p3d87a6046b)" style="fill: none; stroke: #cccccc; stroke-linecap: round"/>
     </g>
    </g>
   </g>
   <g id="patch_10">
    <path d="M 650.85675 200.175412 
L 705.46575 200.175412 
L 705.46575 190.8813 
L 650.85675 190.8813 
L 650.85675 200.175412 
z
" clip-path="url(#p3d87a6046b)" style="fill: #5875a4; stroke: #4c4c4c; stroke-linejoin: miter"/>
   </g>
   <g id="line2d_35">
    <path d="M 678.16125 200.175412 
L 678.16125 205.428388 
" clip-path="url(#p3d87a6046b)" style="fill: none; stroke: #4c4c4c"/>
   </g>
   <g id="line2d_36">
    <path d="M 678.16125 190.8813 
L 678.16125 184.726392 
" clip-path="url(#p3d87a6046b)" style="fill: none; stroke: #4c4c4c"/>
   </g>
   <g id="line2d_37">
    <path d="M 664.509 205.428388 
L 691.8135 205.428388 
" clip-path="url(#p3d87a6046b)" style="fill: none; stroke: #4c4c4c; stroke-linecap: round"/>
   </g>
   <g id="line2d_38">
    <path d="M 664.509 184.726392 
L 691.8135 184.726392 
" clip-path="url(#p3d87a6046b)" style="fill: none; stroke: #4c4c4c; stroke-linecap: round"/>
   </g>
   <g id="patch_11">
    <path d="M 787.37925 177.568298 
L 841.98825 177.568298 
L 841.98825 167.395114 
L 787.37925 167.395114 
L 787.37925 177.568298 
z
" clip-path="url(#p3d87a6046b)" style="fill: #cc8963; stroke: #5b5b5b; stroke-linejoin: miter"/>
   </g>
   <g id="line2d_39">
    <path d="M 814.68375 177.568298 
L 814.68375 180.395314 
" clip-path="url(#p3d87a6046b)" style="fill: none; stroke: #5b5b5b"/>
   </g>
   <g id="line2d_40">
    <path d="M 814.68375 167.395114 
L 814.68375 160.085948 
" clip-path="url(#p3d87a6046b)" style="fill: none; stroke: #5b5b5b"/>
   </g>
   <g id="line2d_41">
    <path d="M 801.0315 180.395314 
L 828.336 180.395314 
" clip-path="url(#p3d87a6046b)" style="fill: none; stroke: #5b5b5b; stroke-linecap: round"/>
   </g>
   <g id="line2d_42">
    <path d="M 801.0315 160.085948 
L 828.336 160.085948 
" clip-path="url(#p3d87a6046b)" style="fill: none; stroke: #5b5b5b; stroke-linecap: round"/>
   </g>
   <g id="patch_12">
    <path d="M 923.90175 393.312655 
L 978.51075 393.312655 
L 978.51075 379.85873 
L 923.90175 379.85873 
L 923.90175 393.312655 
z
" clip-path="url(#p3d87a6046b)" style="fill: #5f9e6e; stroke: #4c4c4c; stroke-linejoin: miter"/>
   </g>
   <g id="line2d_43">
    <path d="M 951.20625 393.312655 
L 951.20625 405.283357 
" clip-path="url(#p3d87a6046b)" style="fill: none; stroke: #4c4c4c"/>
   </g>
   <g id="line2d_44">
    <path d="M 951.20625 379.85873 
L 951.20625 376.569887 
" clip-path="url(#p3d87a6046b)" style="fill: none; stroke: #4c4c4c"/>
   </g>
   <g id="line2d_45">
    <path d="M 937.554 405.283357 
L 964.8585 405.283357 
" clip-path="url(#p3d87a6046b)" style="fill: none; stroke: #4c4c4c; stroke-linecap: round"/>
   </g>
   <g id="line2d_46">
    <path d="M 937.554 376.569887 
L 964.8585 376.569887 
" clip-path="url(#p3d87a6046b)" style="fill: none; stroke: #4c4c4c; stroke-linecap: round"/>
   </g>
   <g id="patch_13">
    <path d="M 1060.42425 94.979549 
L 1115.03325 94.979549 
L 1115.03325 83.973833 
L 1060.42425 83.973833 
L 1060.42425 94.979549 
z
" clip-path="url(#p3d87a6046b)" style="fill: #b55d60; stroke: #525252; stroke-linejoin: miter"/>
   </g>
   <g id="line2d_47">
    <path d="M 1087.72875 94.979549 
L 1087.72875 108.43254 
" clip-path="url(#p3d87a6046b)" style="fill: none; stroke: #525252"/>
   </g>
   <g id="line2d_48">
    <path d="M 1087.72875 83.973833 
L 1087.72875 75.21024 
" clip-path="url(#p3d87a6046b)" style="fill: none; stroke: #525252"/>
   </g>
   <g id="line2d_49">
    <path d="M 1074.0765 108.43254 
L 1101.381 108.43254 
" clip-path="url(#p3d87a6046b)" style="fill: none; stroke: #525252; stroke-linecap: round"/>
   </g>
   <g id="line2d_50">
    <path d="M 1074.0765 75.21024 
L 1101.381 75.21024 
" clip-path="url(#p3d87a6046b)" style="fill: none; stroke: #525252; stroke-linecap: round"/>
   </g>
   <g id="line2d_51">
    <path d="M 650.85675 196.868079 
L 705.46575 196.868079 
" clip-path="url(#p3d87a6046b)" style="fill: none; stroke: #4c4c4c"/>
   </g>
   <g id="line2d_52">
    <path d="M 787.37925 175.548142 
L 841.98825 175.548142 
" clip-path="url(#p3d87a6046b)" style="fill: none; stroke: #5b5b5b"/>
   </g>
   <g id="line2d_53">
    <path d="M 923.90175 387.274868 
L 978.51075 387.274868 
" clip-path="url(#p3d87a6046b)" style="fill: none; stroke: #4c4c4c"/>
   </g>
   <g id="line2d_54">
    <path d="M 1060.42425 88.098545 
L 1115.03325 88.098545 
" clip-path="url(#p3d87a6046b)" style="fill: none; stroke: #525252"/>
   </g>
   <g id="patch_14">
    <path d="M 609.9 530.82 
L 609.9 57.6 
" style="fill: none; stroke: #cccccc; stroke-width: 1.25; stroke-linejoin: miter; stroke-linecap: square"/>
   </g>
   <g id="patch_15">
    <path d="M 609.9 530.82 
L 1155.99 530.82 
" style="fill: none; stroke: #cccccc; stroke-width: 1.25; stroke-linejoin: miter; stroke-linecap: square"/>
   </g>
   <g id="text_20">
    <!-- Mode = multi-threaded -->
    <g style="fill: #262626" transform="translate(817.909688 51.6) scale(0.12 -0.12)">
     <defs>
      <path id="Geist-Regular-61" d="M 1446 -77 
Q 915 -77 608 166 
Q 301 410 301 845 
Q 301 1280 557 1529 
Q 813 1779 1370 1882 
L 2573 2106 
Q 2573 2957 1766 2957 
Q 1088 2957 928 2349 
L 358 2394 
Q 454 2886 828 3177 
Q 1203 3469 1766 3469 
Q 2413 3469 2761 3104 
Q 3110 2739 3110 2086 
L 3110 685 
Q 3110 570 3152 522 
Q 3194 474 3290 474 
L 3424 474 
L 3424 0 
Q 3347 -13 3219 -13 
Q 2912 -13 2761 115 
Q 2611 243 2579 525 
Q 2451 262 2134 92 
Q 1818 -77 1446 -77 
z
M 1498 397 
Q 1997 397 2285 678 
Q 2573 960 2573 1395 
L 2573 1638 
L 1472 1434 
Q 1139 1376 1001 1245 
Q 864 1114 864 896 
Q 864 659 1030 528 
Q 1197 397 1498 397 
z
" transform="scale(0.015625)"/>
     </defs>
     <use xlink:href="#Geist-Regular-4d"/>
     <use xlink:href="#Geist-Regular-6f" x="87.699982"/>
     <use xlink:href="#Geist-Regular-64" x="145.599976"/>
     <use xlink:href="#Geist-Regular-65" x="205.399963"/>
     <use xlink:href="#Geist-Regular-20" x="262.09996"/>
     <use xlink:href="#Geist-Regular-3d" x="287.099945"/>
     <use xlink:href="#Geist-Regular-20" x="353.09993"/>
     <use xlink:href="#Geist-Regular-6d" x="378.099915"/>
     <use xlink:href="#Geist-Regular-75" x="465.799896"/>
     <use xlink:href="#Geist-Regular-6c" x="523.299881"/>
     <use xlink:href="#Geist-Regular-74" x="551.699875"/>
     <use xlink:href="#Geist-Regular-69" x="591.19986"/>
     <use xlink:href="#Geist-Regular-2d" x="615.599854"/>
     <use xlink:href="#Geist-Regular-74" x="658.099838"/>
     <use xlink:href="#Geist-Regular-68" x="697.599823"/>
     <use xlink:href="#Geist-Regular-72" x="755.699814"/>
     <use xlink:href="#Geist-Regular-65" x="793.899811"/>
     <use xlink:href="#Geist-Regular-61" x="850.599808"/>
     <use xlink:href="#Geist-Regular-64" x="907.599792"/>
     <use xlink:href="#Geist-Regular-65" x="967.39978"/>
     <use xlink:href="#Geist-Regular-64" x="1024.099777"/>
    </g>
   </g>
  </g>
  <g id="axes_3">
   <g id="patch_16">
    <path d="M 1168.95 530.82 
L 1715.04 530.82 
L 1715.04 57.6 
L 1168.95 57.6 
z
" style="fill: #ffffff"/>
   </g>
   <g id="matplotlib.axis_5">
    <g id="xtick_9">
     <g id="text_21">
      <!-- 3.12.6 -->
      <g style="fill: #262626" transform="translate(1222.613047 548.13) scale(0.11 -0.11)">
       <use xlink:href="#Geist-Regular-33"/>
       <use xlink:href="#Geist-Regular-2e" x="61.299988"/>
       <use xlink:href="#Geist-Regular-31" x="81.999985"/>
       <use xlink:href="#Geist-Regular-32" x="120.399979"/>
       <use xlink:href="#Geist-Regular-2e" x="182.299973"/>
       <use xlink:href="#Geist-Regular-36" x="202.999969"/>
      </g>
     </g>
    </g>
    <g id="xtick_10">
     <g id="text_22">
      <!-- 3.13.0rc2 -->
      <g style="fill: #262626" transform="translate(1350.369063 548.13) scale(0.11 -0.11)">
       <use xlink:href="#Geist-Regular-33"/>
       <use xlink:href="#Geist-Regular-2e" x="61.299988"/>
       <use xlink:href="#Geist-Regular-31" x="81.999985"/>
       <use xlink:href="#Geist-Regular-33" x="120.399979"/>
       <use xlink:href="#Geist-Regular-2e" x="181.699966"/>
       <use xlink:href="#Geist-Regular-30" x="202.399963"/>
       <use xlink:href="#Geist-Regular-72" x="269.499954"/>
       <use xlink:href="#Geist-Regular-63" x="307.699951"/>
       <use xlink:href="#Geist-Regular-32" x="362.899948"/>
      </g>
     </g>
    </g>
    <g id="xtick_11">
     <g id="text_23">
      <!-- 3.13.0rc2t -->
      <g style="fill: #262626" transform="translate(1484.719063 548.13) scale(0.11 -0.11)">
       <use xlink:href="#Geist-Regular-33"/>
       <use xlink:href="#Geist-Regular-2e" x="61.299988"/>
       <use xlink:href="#Geist-Regular-31" x="81.999985"/>
       <use xlink:href="#Geist-Regular-33" x="120.399979"/>
       <use xlink:href="#Geist-Regular-2e" x="181.699966"/>
       <use xlink:href="#Geist-Regular-30" x="202.399963"/>
       <use xlink:href="#Geist-Regular-72" x="269.499954"/>
       <use xlink:href="#Geist-Regular-63" x="307.699951"/>
       <use xlink:href="#Geist-Regular-32" x="362.899948"/>
       <use xlink:href="#Geist-Regular-74" x="424.799942"/>
      </g>
     </g>
    </g>
    <g id="xtick_12">
     <g id="text_24">
      <!-- 3.13.0rc2t-g1 -->
      <g style="fill: #262626" transform="translate(1613.508047 548.305313) scale(0.11 -0.11)">
       <use xlink:href="#Geist-Regular-33"/>
       <use xlink:href="#Geist-Regular-2e" x="61.299988"/>
       <use xlink:href="#Geist-Regular-31" x="81.999985"/>
       <use xlink:href="#Geist-Regular-33" x="120.399979"/>
       <use xlink:href="#Geist-Regular-2e" x="181.699966"/>
       <use xlink:href="#Geist-Regular-30" x="202.399963"/>
       <use xlink:href="#Geist-Regular-72" x="269.499954"/>
       <use xlink:href="#Geist-Regular-63" x="307.699951"/>
       <use xlink:href="#Geist-Regular-32" x="362.899948"/>
       <use xlink:href="#Geist-Regular-74" x="424.799942"/>
       <use xlink:href="#Geist-Regular-2d" x="464.299927"/>
       <use xlink:href="#Geist-Regular-67" x="506.799911"/>
       <use xlink:href="#Geist-Regular-31" x="566.499908"/>
      </g>
     </g>
    </g>
    <g id="text_25">
     <!-- Python Runtime -->
     <g style="fill: #262626" transform="translate(1397.090625 562.618906) scale(0.12 -0.12)">
      <use xlink:href="#Geist-Regular-50"/>
      <use xlink:href="#Geist-Regular-79" x="64.999985"/>
      <use xlink:href="#Geist-Regular-74" x="118.699982"/>
      <use xlink:href="#Geist-Regular-68" x="158.199966"/>
      <use xlink:href="#Geist-Regular-6f" x="216.299957"/>
      <use xlink:href="#Geist-Regular-6e" x="274.199951"/>
      <use xlink:href="#Geist-Regular-20" x="332.299942"/>
      <use xlink:href="#Geist-Regular-52" x="357.299927"/>
      <use xlink:href="#Geist-Regular-75" x="424.499924"/>
      <use xlink:href="#Geist-Regular-6e" x="481.999908"/>
      <use xlink:href="#Geist-Regular-74" x="540.099899"/>
      <use xlink:href="#Geist-Regular-69" x="579.599884"/>
      <use xlink:href="#Geist-Regular-6d" x="603.999878"/>
      <use xlink:href="#Geist-Regular-65" x="691.69986"/>
     </g>
    </g>
   </g>
   <g id="matplotlib.axis_6">
    <g id="ytick_15">
     <g id="line2d_55">
      <path d="M 1168.95 530.82 
L 1715.04 530.82 
" clip-path="url(#p1f4e234ec2)" style="fill: none; stroke: #cccccc; stroke-linecap: round"/>
     </g>
    </g>
    <g id="ytick_16">
     <g id="line2d_56">
      <path d="M 1168.95 453.357105 
L 1715.04 453.357105 
" clip-path="url(#p1f4e234ec2)" style="fill: none; stroke: #cccccc; stroke-linecap: round"/>
     </g>
    </g>
    <g id="ytick_17">
     <g id="line2d_57">
      <path d="M 1168.95 375.894209 
L 1715.04 375.894209 
" clip-path="url(#p1f4e234ec2)" style="fill: none; stroke: #cccccc; stroke-linecap: round"/>
     </g>
    </g>
    <g id="ytick_18">
     <g id="line2d_58">
      <path d="M 1168.95 298.431314 
L 1715.04 298.431314 
" clip-path="url(#p1f4e234ec2)" style="fill: none; stroke: #cccccc; stroke-linecap: round"/>
     </g>
    </g>
    <g id="ytick_19">
     <g id="line2d_59">
      <path d="M 1168.95 220.968419 
L 1715.04 220.968419 
" clip-path="url(#p1f4e234ec2)" style="fill: none; stroke: #cccccc; stroke-linecap: round"/>
     </g>
    </g>
    <g id="ytick_20">
     <g id="line2d_60">
      <path d="M 1168.95 143.505523 
L 1715.04 143.505523 
" clip-path="url(#p1f4e234ec2)" style="fill: none; stroke: #cccccc; stroke-linecap: round"/>
     </g>
    </g>
    <g id="ytick_21">
     <g id="line2d_61">
      <path d="M 1168.95 66.042628 
L 1715.04 66.042628 
" clip-path="url(#p1f4e234ec2)" style="fill: none; stroke: #cccccc; stroke-linecap: round"/>
     </g>
    </g>
   </g>
   <g id="patch_17">
    <path d="M 1209.90675 426.303209 
L 1264.51575 426.303209 
L 1264.51575 418.226105 
L 1209.90675 418.226105 
L 1209.90675 426.303209 
z
" clip-path="url(#p1f4e234ec2)" style="fill: #5875a4; stroke: #4c4c4c; stroke-linejoin: miter"/>
   </g>
   <g id="line2d_62">
    <path d="M 1237.21125 426.303209 
L 1237.21125 427.41504 
" clip-path="url(#p1f4e234ec2)" style="fill: none; stroke: #4c4c4c"/>
   </g>
   <g id="line2d_63">
    <path d="M 1237.21125 418.226105 
L 1237.21125 417.53658 
" clip-path="url(#p1f4e234ec2)" style="fill: none; stroke: #4c4c4c"/>
   </g>
   <g id="line2d_64">
    <path d="M 1223.559 427.41504 
L 1250.8635 427.41504 
" clip-path="url(#p1f4e234ec2)" style="fill: none; stroke: #4c4c4c; stroke-linecap: round"/>
   </g>
   <g id="line2d_65">
    <path d="M 1223.559 417.53658 
L 1250.8635 417.53658 
" clip-path="url(#p1f4e234ec2)" style="fill: none; stroke: #4c4c4c; stroke-linecap: round"/>
   </g>
   <g id="patch_18">
    <path d="M 1346.42925 418.424204 
L 1401.03825 418.424204 
L 1401.03825 414.730931 
L 1346.42925 414.730931 
L 1346.42925 418.424204 
z
" clip-path="url(#p1f4e234ec2)" style="fill: #cc8963; stroke: #5b5b5b; stroke-linejoin: miter"/>
   </g>
   <g id="line2d_66">
    <path d="M 1373.73375 418.424204 
L 1373.73375 419.811455 
" clip-path="url(#p1f4e234ec2)" style="fill: none; stroke: #5b5b5b"/>
   </g>
   <g id="line2d_67">
    <path d="M 1373.73375 414.730931 
L 1373.73375 412.746343 
" clip-path="url(#p1f4e234ec2)" style="fill: none; stroke: #5b5b5b"/>
   </g>
   <g id="line2d_68">
    <path d="M 1360.0815 419.811455 
L 1387.386 419.811455 
" clip-path="url(#p1f4e234ec2)" style="fill: none; stroke: #5b5b5b; stroke-linecap: round"/>
   </g>
   <g id="line2d_69">
    <path d="M 1360.0815 412.746343 
L 1387.386 412.746343 
" clip-path="url(#p1f4e234ec2)" style="fill: none; stroke: #5b5b5b; stroke-linecap: round"/>
   </g>
   <g id="patch_19">
    <path d="M 1482.95175 392.535239 
L 1537.56075 392.535239 
L 1537.56075 381.385184 
L 1482.95175 381.385184 
L 1482.95175 392.535239 
z
" clip-path="url(#p1f4e234ec2)" style="fill: #5f9e6e; stroke: #4c4c4c; stroke-linejoin: miter"/>
   </g>
   <g id="line2d_70">
    <path d="M 1510.25625 392.535239 
L 1510.25625 394.529078 
" clip-path="url(#p1f4e234ec2)" style="fill: none; stroke: #4c4c4c"/>
   </g>
   <g id="line2d_71">
    <path d="M 1510.25625 381.385184 
L 1510.25625 379.122299 
" clip-path="url(#p1f4e234ec2)" style="fill: none; stroke: #4c4c4c"/>
   </g>
   <g id="line2d_72">
    <path d="M 1496.604 394.529078 
L 1523.9085 394.529078 
" clip-path="url(#p1f4e234ec2)" style="fill: none; stroke: #4c4c4c; stroke-linecap: round"/>
   </g>
   <g id="line2d_73">
    <path d="M 1496.604 379.122299 
L 1523.9085 379.122299 
" clip-path="url(#p1f4e234ec2)" style="fill: none; stroke: #4c4c4c; stroke-linecap: round"/>
   </g>
   <g id="patch_20">
    <path d="M 1619.47425 391.588844 
L 1674.08325 391.588844 
L 1674.08325 385.78346 
L 1619.47425 385.78346 
L 1619.47425 391.588844 
z
" clip-path="url(#p1f4e234ec2)" style="fill: #b55d60; stroke: #525252; stroke-linejoin: miter"/>
   </g>
   <g id="line2d_74">
    <path d="M 1646.77875 391.588844 
L 1646.77875 396.324687 
" clip-path="url(#p1f4e234ec2)" style="fill: none; stroke: #525252"/>
   </g>
   <g id="line2d_75">
    <path d="M 1646.77875 385.78346 
L 1646.77875 384.430599 
" clip-path="url(#p1f4e234ec2)" style="fill: none; stroke: #525252"/>
   </g>
   <g id="line2d_76">
    <path d="M 1633.1265 396.324687 
L 1660.431 396.324687 
" clip-path="url(#p1f4e234ec2)" style="fill: none; stroke: #525252; stroke-linecap: round"/>
   </g>
   <g id="line2d_77">
    <path d="M 1633.1265 384.430599 
L 1660.431 384.430599 
" clip-path="url(#p1f4e234ec2)" style="fill: none; stroke: #525252; stroke-linecap: round"/>
   </g>
   <g id="line2d_78">
    <path d="M 1209.90675 423.096043 
L 1264.51575 423.096043 
" clip-path="url(#p1f4e234ec2)" style="fill: none; stroke: #4c4c4c"/>
   </g>
   <g id="line2d_79">
    <path d="M 1346.42925 415.726395 
L 1401.03825 415.726395 
" clip-path="url(#p1f4e234ec2)" style="fill: none; stroke: #5b5b5b"/>
   </g>
   <g id="line2d_80">
    <path d="M 1482.95175 386.760333 
L 1537.56075 386.760333 
" clip-path="url(#p1f4e234ec2)" style="fill: none; stroke: #4c4c4c"/>
   </g>
   <g id="line2d_81">
    <path d="M 1619.47425 388.411895 
L 1674.08325 388.411895 
" clip-path="url(#p1f4e234ec2)" style="fill: none; stroke: #525252"/>
   </g>
   <g id="patch_21">
    <path d="M 1168.95 530.82 
L 1168.95 57.6 
" style="fill: none; stroke: #cccccc; stroke-width: 1.25; stroke-linejoin: miter; stroke-linecap: square"/>
   </g>
   <g id="patch_22">
    <path d="M 1168.95 530.82 
L 1715.04 530.82 
" style="fill: none; stroke: #cccccc; stroke-width: 1.25; stroke-linejoin: miter; stroke-linecap: square"/>
   </g>
   <g id="text_26">
    <!-- Mode = multi-process -->
    <g style="fill: #262626" transform="translate(1380.07875 51.6) scale(0.12 -0.12)">
     <defs>
      <path id="Geist-Regular-70" d="M 512 3392 
L 1011 3392 
L 1018 2874 
Q 1171 3162 1440 3315 
Q 1709 3469 2061 3469 
Q 2547 3469 2876 3229 
Q 3206 2989 3366 2585 
Q 3526 2182 3526 1696 
Q 3526 1210 3366 806 
Q 3206 403 2876 163 
Q 2547 -77 2061 -77 
Q 1728 -77 1456 64 
Q 1184 205 1050 448 
L 1050 -960 
L 512 -960 
L 512 3392 
z
M 2010 435 
Q 2451 435 2707 768 
Q 2963 1101 2963 1696 
Q 2963 2291 2707 2624 
Q 2451 2957 2010 2957 
Q 1562 2957 1306 2633 
Q 1050 2310 1050 1696 
Q 1050 1082 1302 758 
Q 1555 435 2010 435 
z
" transform="scale(0.015625)"/>
     </defs>
     <use xlink:href="#Geist-Regular-4d"/>
     <use xlink:href="#Geist-Regular-6f" x="87.699982"/>
     <use xlink:href="#Geist-Regular-64" x="145.599976"/>
     <use xlink:href="#Geist-Regular-65" x="205.399963"/>
     <use xlink:href="#Geist-Regular-20" x="262.09996"/>
     <use xlink:href="#Geist-Regular-3d" x="287.099945"/>
     <use xlink:href="#Geist-Regular-20" x="353.09993"/>
     <use xlink:href="#Geist-Regular-6d" x="378.099915"/>
     <use xlink:href="#Geist-Regular-75" x="465.799896"/>
     <use xlink:href="#Geist-Regular-6c" x="523.299881"/>
     <use xlink:href="#Geist-Regular-74" x="551.699875"/>
     <use xlink:href="#Geist-Regular-69" x="591.19986"/>
     <use xlink:href="#Geist-Regular-2d" x="615.599854"/>
     <use xlink:href="#Geist-Regular-70" x="658.099838"/>
     <use xlink:href="#Geist-Regular-72" x="717.899826"/>
     <use xlink:href="#Geist-Regular-6f" x="756.099823"/>
     <use xlink:href="#Geist-Regular-63" x="813.999817"/>
     <use xlink:href="#Geist-Regular-65" x="869.199814"/>
     <use xlink:href="#Geist-Regular-73" x="925.899811"/>
     <use xlink:href="#Geist-Regular-73" x="978.899796"/>
    </g>
   </g>
  </g>
  <g id="text_27">
   <!-- GIL Performance Comparison (t3.2xlarge) -->
   <g style="fill: #262626" transform="translate(723.86325 22.32) scale(0.144 -0.144)">
    <defs>
     <path id="Geist-Regular-47" d="M 2342 -102 
Q 1715 -102 1257 202 
Q 800 506 557 1043 
Q 314 1581 314 2266 
Q 314 2950 560 3491 
Q 806 4032 1267 4339 
Q 1728 4646 2355 4646 
Q 3130 4646 3584 4236 
Q 4038 3827 4173 3149 
L 3597 3110 
Q 3398 4109 2355 4109 
Q 1619 4109 1254 3587 
Q 890 3066 890 2266 
Q 890 1440 1258 937 
Q 1626 435 2355 435 
Q 2746 435 3043 614 
Q 3341 794 3504 1101 
Q 3667 1408 3674 1773 
L 2368 1773 
L 2368 2298 
L 4186 2298 
L 4186 0 
L 3776 0 
L 3750 762 
Q 3584 378 3193 138 
Q 2803 -102 2342 -102 
z
" transform="scale(0.015625)"/>
     <path id="Geist-Regular-49" d="M 589 4544 
L 1139 4544 
L 1139 0 
L 589 0 
L 589 4544 
z
" transform="scale(0.015625)"/>
     <path id="Geist-Regular-4c" d="M 589 4544 
L 1139 4544 
L 1139 538 
L 3411 538 
L 3411 0 
L 589 0 
L 589 4544 
z
" transform="scale(0.015625)"/>
     <path id="Geist-Regular-66" d="M 845 3699 
Q 845 4090 1069 4317 
Q 1293 4544 1741 4544 
L 2278 4544 
L 2278 4070 
L 1779 4070 
Q 1581 4070 1481 3964 
Q 1382 3859 1382 3661 
L 1382 3392 
L 2234 3392 
L 2234 2918 
L 1382 2918 
L 1382 0 
L 845 0 
L 845 2918 
L 384 2918 
L 384 3392 
L 845 3392 
L 845 3699 
z
" transform="scale(0.015625)"/>
     <path id="Geist-Regular-43" d="M 2355 -102 
Q 1747 -102 1286 182 
Q 826 467 570 1004 
Q 314 1542 314 2266 
Q 314 2989 570 3529 
Q 826 4070 1286 4358 
Q 1747 4646 2355 4646 
Q 3155 4646 3619 4243 
Q 4083 3840 4230 3098 
L 3648 3059 
Q 3552 3558 3229 3833 
Q 2906 4109 2355 4109 
Q 1920 4109 1587 3888 
Q 1254 3667 1072 3251 
Q 890 2835 890 2266 
Q 890 1696 1072 1283 
Q 1254 870 1587 652 
Q 1920 435 2355 435 
Q 2938 435 3267 736 
Q 3597 1037 3686 1587 
L 4269 1549 
Q 4141 787 3645 342 
Q 3149 -102 2355 -102 
z
" transform="scale(0.015625)"/>
     <path id="Geist-Regular-78" d="M 1549 1741 
L 365 3392 
L 992 3392 
L 1882 2112 
L 2746 3392 
L 3386 3392 
L 2214 1728 
L 3443 0 
L 2816 0 
L 1882 1370 
L 941 0 
L 301 0 
L 1549 1741 
z
" transform="scale(0.015625)"/>
    </defs>
    <use xlink:href="#Geist-Regular-47"/>
    <use xlink:href="#Geist-Regular-49" x="70.799988"/>
    <use xlink:href="#Geist-Regular-4c" x="97.799973"/>
    <use xlink:href="#Geist-Regular-20" x="155.799957"/>
    <use xlink:href="#Geist-Regular-50" x="180.799942"/>
    <use xlink:href="#Geist-Regular-65" x="245.799927"/>
    <use xlink:href="#Geist-Regular-72" x="302.499924"/>
    <use xlink:href="#Geist-Regular-66" x="340.699921"/>
    <use xlink:href="#Geist-Regular-6f" x="380.499908"/>
    <use xlink:href="#Geist-Regular-72" x="438.399902"/>
    <use xlink:href="#Geist-Regular-6d" x="476.599899"/>
    <use xlink:href="#Geist-Regular-61" x="564.299881"/>
    <use xlink:href="#Geist-Regular-6e" x="621.299866"/>
    <use xlink:href="#Geist-Regular-63" x="679.399857"/>
    <use xlink:href="#Geist-Regular-65" x="734.599854"/>
    <use xlink:href="#Geist-Regular-20" x="791.29985"/>
    <use xlink:href="#Geist-Regular-43" x="816.299835"/>
    <use xlink:href="#Geist-Regular-6f" x="887.399826"/>
    <use xlink:href="#Geist-Regular-6d" x="945.29982"/>
    <use xlink:href="#Geist-Regular-70" x="1032.999802"/>
    <use xlink:href="#Geist-Regular-61" x="1092.799789"/>
    <use xlink:href="#Geist-Regular-72" x="1149.799774"/>
    <use xlink:href="#Geist-Regular-69" x="1187.999771"/>
    <use xlink:href="#Geist-Regular-73" x="1212.399765"/>
    <use xlink:href="#Geist-Regular-6f" x="1265.39975"/>
    <use xlink:href="#Geist-Regular-6e" x="1323.299744"/>
    <use xlink:href="#Geist-Regular-20" x="1381.399734"/>
    <use xlink:href="#Geist-Regular-28" x="1406.399719"/>
    <use xlink:href="#Geist-Regular-74" x="1435.399704"/>
    <use xlink:href="#Geist-Regular-33" x="1474.899689"/>
    <use xlink:href="#Geist-Regular-2e" x="1536.199677"/>
    <use xlink:href="#Geist-Regular-32" x="1556.899673"/>
    <use xlink:href="#Geist-Regular-78" x="1618.799667"/>
    <use xlink:href="#Geist-Regular-6c" x="1677.299652"/>
    <use xlink:href="#Geist-Regular-61" x="1705.699646"/>
    <use xlink:href="#Geist-Regular-72" x="1762.699631"/>
    <use xlink:href="#Geist-Regular-67" x="1800.899628"/>
    <use xlink:href="#Geist-Regular-65" x="1860.599625"/>
    <use xlink:href="#Geist-Regular-29" x="1917.299622"/>
   </g>
  </g>
 </g>
 <defs>
  <clipPath id="pa3fc462301">
   <rect x="50.85" y="57.6" width="546.09" height="473.22"/>
  </clipPath>
  <clipPath id="p3d87a6046b">
   <rect x="609.9" y="57.6" width="546.09" height="473.22"/>
  </clipPath>
  <clipPath id="p1f4e234ec2">
   <rect x="1168.95" y="57.6" width="546.09" height="473.22"/>
  </clipPath>
 </defs>
</svg>
