<?xml version="1.0" encoding="utf-8" standalone="no"?>
<!DOCTYPE svg PUBLIC "-//W3C//DTD SVG 1.1//EN"
  "http://www.w3.org/Graphics/SVG/1.1/DTD/svg11.dtd">
<svg xmlns:xlink="http://www.w3.org/1999/xlink" width="1728pt" height="576pt" viewBox="0 0 1728 576" xmlns="http://www.w3.org/2000/svg" version="1.1">
 <metadata>
  <rdf:RDF xmlns:dc="http://purl.org/dc/elements/1.1/" xmlns:cc="http://creativecommons.org/ns#" xmlns:rdf="http://www.w3.org/1999/02/22-rdf-syntax-ns#">
   <cc:Work>
    <dc:type rdf:resource="http://purl.org/dc/dcmitype/StillImage"/>
    <dc:date>2024-09-26T13:35:01.825845</dc:date>
    <dc:format>image/svg+xml</dc:format>
    <dc:creator>
     <cc:Agent>
      <dc:title>Matplotlib v3.9.2, https://matplotlib.org/</dc:title>
     </cc:Agent>
    </dc:creator>
   </cc:Work>
  </rdf:RDF>
 </metadata>
 <defs>
  <style type="text/css">*{stroke-linejoin: round; stroke-linecap: butt}</style>
 </defs>
 <g id="figure_1">
  <g id="patch_1">
   <path d="M 0 576 
L 1728 576 
L 1728 0 
L 0 0 
z
" style="fill: #ffffff"/>
  </g>
  <g id="axes_1">
   <g id="patch_2">
    <path d="M 48.15 530.82 
L 595.14 530.82 
L 595.14 57.6 
L 48.15 57.6 
z
" style="fill: #ffffff"/>
   </g>
   <g id="matplotlib.axis_1">
    <g id="xtick_1">
     <g id="text_1">
      <!-- 3.12.6 -->
      <g style="fill: #262626" transform="translate(101.925547 548.13) scale(0.11 -0.11)">
       <defs>
        <path id="Geist-Regular-33" d="M 1926 -102 
Q 1184 -102 768 246 
Q 352 595 320 1171 
L 890 1210 
Q 928 813 1200 624 
Q 1472 435 1926 435 
Q 2413 435 2720 636 
Q 3027 838 3027 1267 
Q 3027 1702 2732 1923 
Q 2438 2144 1933 2144 
L 1574 2144 
L 1574 2682 
L 1933 2682 
Q 2362 2682 2614 2851 
Q 2867 3021 2867 3392 
Q 2867 3744 2636 3926 
Q 2406 4109 1958 4109 
Q 1101 4109 1011 3462 
L 435 3501 
Q 499 4026 896 4336 
Q 1293 4646 1958 4646 
Q 2650 4646 3046 4316 
Q 3443 3987 3443 3418 
Q 3443 2688 2656 2445 
Q 3098 2323 3350 2012 
Q 3603 1702 3603 1267 
Q 3603 627 3142 262 
Q 2682 -102 1926 -102 
z
" transform="scale(0.015625)"/>
        <path id="Geist-Regular-2e" d="M 301 723 
L 1024 723 
L 1024 0 
L 301 0 
L 301 723 
z
" transform="scale(0.015625)"/>
        <path id="Geist-Regular-31" d="M 1203 3366 
L 256 3366 
L 256 3840 
L 640 3840 
Q 1018 3840 1168 3993 
Q 1318 4147 1318 4544 
L 1754 4544 
L 1754 0 
L 1203 0 
L 1203 3366 
z
" transform="scale(0.015625)"/>
        <path id="Geist-Regular-32" d="M 384 0 
Q 384 499 537 883 
Q 691 1267 1072 1612 
Q 1453 1958 2125 2317 
Q 2464 2496 2646 2633 
Q 2829 2771 2915 2928 
Q 3002 3085 3002 3315 
Q 3002 3674 2768 3891 
Q 2534 4109 2093 4109 
Q 1619 4109 1337 3862 
Q 1056 3616 986 3149 
L 410 3187 
Q 486 3866 924 4256 
Q 1363 4646 2093 4646 
Q 2554 4646 2890 4480 
Q 3226 4314 3402 4016 
Q 3578 3718 3578 3328 
Q 3578 2976 3462 2729 
Q 3347 2483 3081 2265 
Q 2816 2048 2330 1792 
Q 1734 1478 1408 1142 
Q 1082 806 1062 538 
L 3578 538 
L 3578 0 
L 384 0 
z
" transform="scale(0.015625)"/>
        <path id="Geist-Regular-36" d="M 1997 -102 
Q 1229 -102 806 422 
Q 384 947 384 1920 
Q 384 3155 806 3900 
Q 1229 4646 2176 4646 
Q 3283 4646 3584 3571 
L 3008 3520 
Q 2925 3808 2729 3958 
Q 2534 4109 2176 4109 
Q 1651 4109 1337 3699 
Q 1024 3290 960 2477 
Q 1133 2739 1430 2899 
Q 1728 3059 2099 3059 
Q 2541 3059 2883 2867 
Q 3226 2675 3414 2323 
Q 3603 1971 3603 1510 
Q 3603 1018 3398 653 
Q 3194 288 2829 93 
Q 2464 -102 1997 -102 
z
M 2010 435 
Q 2464 435 2745 723 
Q 3027 1011 3027 1510 
Q 3027 1978 2758 2256 
Q 2490 2534 2061 2534 
Q 1594 2534 1290 2252 
Q 986 1971 986 1510 
Q 986 1037 1264 736 
Q 1542 435 2010 435 
z
" transform="scale(0.015625)"/>
       </defs>
       <use xlink:href="#Geist-Regular-33"/>
       <use xlink:href="#Geist-Regular-2e" x="61.299988"/>
       <use xlink:href="#Geist-Regular-31" x="81.999985"/>
       <use xlink:href="#Geist-Regular-32" x="120.399979"/>
       <use xlink:href="#Geist-Regular-2e" x="182.299973"/>
       <use xlink:href="#Geist-Regular-36" x="202.999969"/>
      </g>
     </g>
    </g>
    <g id="xtick_2">
     <g id="text_2">
      <!-- 3.13.0rc2 -->
      <g style="fill: #262626" transform="translate(229.906563 548.13) scale(0.11 -0.11)">
       <defs>
        <path id="Geist-Regular-30" d="M 2144 -102 
Q 1600 -102 1193 186 
Q 787 474 566 1008 
Q 346 1542 346 2266 
Q 346 2989 566 3526 
Q 787 4064 1193 4355 
Q 1600 4646 2144 4646 
Q 2694 4646 3100 4358 
Q 3507 4070 3728 3532 
Q 3949 2995 3949 2266 
Q 3949 1542 3728 1008 
Q 3507 474 3100 186 
Q 2694 -102 2144 -102 
z
M 2144 435 
Q 2733 435 3053 912 
Q 3373 1389 3373 2266 
Q 3373 3149 3053 3629 
Q 2733 4109 2144 4109 
Q 1555 4109 1238 3629 
Q 922 3149 922 2266 
Q 922 1389 1238 912 
Q 1555 435 2144 435 
z
" transform="scale(0.015625)"/>
        <path id="Geist-Regular-72" d="M 512 3392 
L 986 3392 
L 1005 2765 
Q 1184 3392 1811 3392 
L 2144 3392 
L 2144 2880 
L 1818 2880 
Q 1050 2880 1050 2048 
L 1050 0 
L 512 0 
L 512 3392 
z
" transform="scale(0.015625)"/>
        <path id="Geist-Regular-63" d="M 1856 -77 
Q 1389 -77 1037 140 
Q 685 358 493 761 
Q 301 1165 301 1696 
Q 301 2227 493 2630 
Q 685 3034 1037 3251 
Q 1389 3469 1856 3469 
Q 2445 3469 2829 3161 
Q 3213 2854 3296 2291 
L 2733 2253 
Q 2675 2586 2441 2771 
Q 2208 2957 1856 2957 
Q 1389 2957 1126 2624 
Q 864 2291 864 1696 
Q 864 1101 1126 768 
Q 1389 435 1856 435 
Q 2208 435 2441 630 
Q 2675 826 2733 1203 
L 3296 1165 
Q 3206 595 2822 259 
Q 2438 -77 1856 -77 
z
" transform="scale(0.015625)"/>
       </defs>
       <use xlink:href="#Geist-Regular-33"/>
       <use xlink:href="#Geist-Regular-2e" x="61.299988"/>
       <use xlink:href="#Geist-Regular-31" x="81.999985"/>
       <use xlink:href="#Geist-Regular-33" x="120.399979"/>
       <use xlink:href="#Geist-Regular-2e" x="181.699966"/>
       <use xlink:href="#Geist-Regular-30" x="202.399963"/>
       <use xlink:href="#Geist-Regular-72" x="269.499954"/>
       <use xlink:href="#Geist-Regular-63" x="307.699951"/>
       <use xlink:href="#Geist-Regular-32" x="362.899948"/>
      </g>
     </g>
    </g>
    <g id="xtick_3">
     <g id="text_3">
      <!-- 3.13.0rc2t -->
      <g style="fill: #262626" transform="translate(364.481562 548.13) scale(0.11 -0.11)">
       <defs>
        <path id="Geist-Regular-74" d="M 1754 0 
Q 1293 0 1072 211 
Q 851 422 851 870 
L 851 2918 
L 352 2918 
L 352 3392 
L 851 3392 
L 851 4186 
L 1389 4186 
L 1389 3392 
L 2291 3392 
L 2291 2918 
L 1389 2918 
L 1389 883 
Q 1389 659 1488 566 
Q 1587 474 1805 474 
L 2291 474 
L 2291 0 
L 1754 0 
z
" transform="scale(0.015625)"/>
       </defs>
       <use xlink:href="#Geist-Regular-33"/>
       <use xlink:href="#Geist-Regular-2e" x="61.299988"/>
       <use xlink:href="#Geist-Regular-31" x="81.999985"/>
       <use xlink:href="#Geist-Regular-33" x="120.399979"/>
       <use xlink:href="#Geist-Regular-2e" x="181.699966"/>
       <use xlink:href="#Geist-Regular-30" x="202.399963"/>
       <use xlink:href="#Geist-Regular-72" x="269.499954"/>
       <use xlink:href="#Geist-Regular-63" x="307.699951"/>
       <use xlink:href="#Geist-Regular-32" x="362.899948"/>
       <use xlink:href="#Geist-Regular-74" x="424.799942"/>
      </g>
     </g>
    </g>
    <g id="xtick_4">
     <g id="text_4">
      <!-- 3.13.0rc2t-g1 -->
      <g style="fill: #262626" transform="translate(493.495547 548.305313) scale(0.11 -0.11)">
       <defs>
        <path id="Geist-Regular-2d" d="M 301 2118 
L 2419 2118 
L 2419 1613 
L 301 1613 
L 301 2118 
z
" transform="scale(0.015625)"/>
        <path id="Geist-Regular-67" d="M 1818 -1037 
Q 1274 -1037 890 -768 
Q 506 -499 397 -51 
L 960 -13 
Q 1043 -269 1241 -397 
Q 1440 -525 1818 -525 
Q 2285 -525 2528 -339 
Q 2771 -154 2771 218 
L 2771 768 
Q 2643 499 2377 339 
Q 2112 179 1779 179 
Q 1350 179 1014 387 
Q 678 595 489 969 
Q 301 1344 301 1824 
Q 301 2304 486 2678 
Q 672 3053 1001 3261 
Q 1331 3469 1754 3469 
Q 2112 3469 2397 3302 
Q 2682 3136 2797 2854 
L 2797 3392 
L 3309 3392 
L 3309 230 
Q 3309 -365 2912 -701 
Q 2515 -1037 1818 -1037 
z
M 1805 691 
Q 2253 691 2512 1004 
Q 2771 1318 2771 1856 
Q 2771 2362 2508 2659 
Q 2246 2957 1805 2957 
Q 1363 2957 1113 2653 
Q 864 2349 864 1824 
Q 864 1299 1117 995 
Q 1370 691 1805 691 
z
" transform="scale(0.015625)"/>
       </defs>
       <use xlink:href="#Geist-Regular-33"/>
       <use xlink:href="#Geist-Regular-2e" x="61.299988"/>
       <use xlink:href="#Geist-Regular-31" x="81.999985"/>
       <use xlink:href="#Geist-Regular-33" x="120.399979"/>
       <use xlink:href="#Geist-Regular-2e" x="181.699966"/>
       <use xlink:href="#Geist-Regular-30" x="202.399963"/>
       <use xlink:href="#Geist-Regular-72" x="269.499954"/>
       <use xlink:href="#Geist-Regular-63" x="307.699951"/>
       <use xlink:href="#Geist-Regular-32" x="362.899948"/>
       <use xlink:href="#Geist-Regular-74" x="424.799942"/>
       <use xlink:href="#Geist-Regular-2d" x="464.299927"/>
       <use xlink:href="#Geist-Regular-67" x="506.799911"/>
       <use xlink:href="#Geist-Regular-31" x="566.499908"/>
      </g>
     </g>
    </g>
    <g id="text_5">
     <!-- Python Runtime -->
     <g style="fill: #262626" transform="translate(276.740625 562.618906) scale(0.12 -0.12)">
      <defs>
       <path id="Geist-Regular-50" d="M 589 4544 
L 2221 4544 
Q 2976 4544 3401 4179 
Q 3827 3814 3827 3168 
Q 3827 2509 3401 2137 
Q 2976 1766 2221 1766 
L 1139 1766 
L 1139 0 
L 589 0 
L 589 4544 
z
M 2221 2304 
Q 3251 2304 3251 3168 
Q 3251 4006 2221 4006 
L 1139 4006 
L 1139 2304 
L 2221 2304 
z
" transform="scale(0.015625)"/>
       <path id="Geist-Regular-79" d="M 659 -486 
L 1050 -486 
Q 1222 -486 1308 -432 
Q 1395 -378 1446 -256 
L 1568 64 
L 1382 64 
L 141 3392 
L 730 3392 
L 1741 563 
L 2707 3392 
L 3296 3392 
L 1920 -429 
Q 1824 -704 1632 -832 
Q 1440 -960 1101 -960 
L 659 -960 
L 659 -486 
z
" transform="scale(0.015625)"/>
       <path id="Geist-Regular-68" d="M 512 4544 
L 1050 4544 
L 1050 2861 
Q 1178 3162 1443 3315 
Q 1709 3469 2074 3469 
Q 2611 3469 2908 3117 
Q 3206 2765 3206 2182 
L 3206 0 
L 2669 0 
L 2669 2029 
Q 2669 2995 1958 2995 
Q 1536 2995 1293 2739 
Q 1050 2483 1050 2022 
L 1050 0 
L 512 0 
L 512 4544 
z
" transform="scale(0.015625)"/>
       <path id="Geist-Regular-6f" d="M 1856 -77 
Q 1389 -77 1037 140 
Q 685 358 493 758 
Q 301 1158 301 1696 
Q 301 2234 493 2634 
Q 685 3034 1037 3251 
Q 1389 3469 1856 3469 
Q 2317 3469 2669 3251 
Q 3021 3034 3213 2634 
Q 3405 2234 3405 1696 
Q 3405 1158 3213 758 
Q 3021 358 2669 140 
Q 2317 -77 1856 -77 
z
M 1856 435 
Q 2323 435 2582 771 
Q 2842 1107 2842 1696 
Q 2842 2285 2582 2621 
Q 2323 2957 1856 2957 
Q 1389 2957 1126 2624 
Q 864 2291 864 1696 
Q 864 1101 1126 768 
Q 1389 435 1856 435 
z
" transform="scale(0.015625)"/>
       <path id="Geist-Regular-6e" d="M 512 3392 
L 1005 3392 
L 1018 2784 
Q 1146 3123 1421 3296 
Q 1696 3469 2061 3469 
Q 2618 3469 2912 3110 
Q 3206 2752 3206 2182 
L 3206 0 
L 2669 0 
L 2669 2029 
Q 2669 2509 2496 2752 
Q 2323 2995 1946 2995 
Q 1542 2995 1296 2742 
Q 1050 2490 1050 2029 
L 1050 0 
L 512 0 
L 512 3392 
z
" transform="scale(0.015625)"/>
       <path id="Geist-Regular-20" transform="scale(0.015625)"/>
       <path id="Geist-Regular-52" d="M 589 4544 
L 2310 4544 
Q 3027 4544 3443 4173 
Q 3859 3802 3859 3168 
Q 3859 2790 3635 2505 
Q 3411 2221 3091 2125 
Q 3712 2016 3776 1338 
L 3904 0 
L 3347 0 
L 3232 1280 
Q 3206 1568 3027 1699 
Q 2848 1830 2458 1830 
L 1139 1830 
L 1139 0 
L 589 0 
L 589 4544 
z
M 2381 2368 
Q 2797 2368 3040 2579 
Q 3283 2790 3283 3181 
Q 3283 3578 3030 3792 
Q 2778 4006 2310 4006 
L 1139 4006 
L 1139 2368 
L 2381 2368 
z
" transform="scale(0.015625)"/>
       <path id="Geist-Regular-75" d="M 1626 -77 
Q 1114 -77 813 265 
Q 512 608 512 1210 
L 512 3392 
L 1050 3392 
L 1050 1357 
Q 1050 864 1226 630 
Q 1402 397 1766 397 
Q 2170 397 2400 656 
Q 2630 915 2630 1370 
L 2630 3392 
L 3168 3392 
L 3168 0 
L 2656 0 
L 2656 550 
Q 2515 250 2252 86 
Q 1990 -77 1626 -77 
z
" transform="scale(0.015625)"/>
       <path id="Geist-Regular-69" d="M 512 3392 
L 1050 3392 
L 1050 0 
L 512 0 
L 512 3392 
z
M 499 4550 
L 1062 4550 
L 1062 3923 
L 499 3923 
L 499 4550 
z
" transform="scale(0.015625)"/>
       <path id="Geist-Regular-6d" d="M 512 3392 
L 1005 3392 
L 1018 2797 
Q 1146 3110 1395 3289 
Q 1645 3469 1971 3469 
Q 2355 3469 2617 3283 
Q 2880 3098 2989 2758 
Q 3098 3104 3354 3286 
Q 3610 3469 3981 3469 
Q 4518 3469 4809 3133 
Q 5101 2797 5101 2182 
L 5101 0 
L 4563 0 
L 4563 2067 
Q 4563 2528 4384 2761 
Q 4205 2995 3853 2995 
Q 3494 2995 3283 2739 
Q 3072 2483 3072 2029 
L 3072 0 
L 2534 0 
L 2534 2029 
Q 2534 2995 1837 2995 
Q 1478 2995 1264 2736 
Q 1050 2477 1050 2029 
L 1050 0 
L 512 0 
L 512 3392 
z
" transform="scale(0.015625)"/>
       <path id="Geist-Regular-65" d="M 1856 -77 
Q 1382 -77 1030 140 
Q 678 358 489 758 
Q 301 1158 301 1696 
Q 301 2227 489 2630 
Q 678 3034 1024 3251 
Q 1370 3469 1830 3469 
Q 2272 3469 2611 3261 
Q 2950 3053 3139 2649 
Q 3328 2246 3328 1690 
L 3328 1530 
L 864 1530 
Q 890 992 1149 713 
Q 1408 435 1856 435 
Q 2182 435 2396 585 
Q 2611 736 2701 1005 
L 3277 960 
Q 3142 493 2761 208 
Q 2381 -77 1856 -77 
z
M 2739 2003 
Q 2701 2477 2461 2717 
Q 2221 2957 1830 2957 
Q 1434 2957 1181 2713 
Q 928 2470 864 2003 
L 2739 2003 
z
" transform="scale(0.015625)"/>
      </defs>
      <use xlink:href="#Geist-Regular-50"/>
      <use xlink:href="#Geist-Regular-79" x="64.999985"/>
      <use xlink:href="#Geist-Regular-74" x="118.699982"/>
      <use xlink:href="#Geist-Regular-68" x="158.199966"/>
      <use xlink:href="#Geist-Regular-6f" x="216.299957"/>
      <use xlink:href="#Geist-Regular-6e" x="274.199951"/>
      <use xlink:href="#Geist-Regular-20" x="332.299942"/>
      <use xlink:href="#Geist-Regular-52" x="357.299927"/>
      <use xlink:href="#Geist-Regular-75" x="424.499924"/>
      <use xlink:href="#Geist-Regular-6e" x="481.999908"/>
      <use xlink:href="#Geist-Regular-74" x="540.099899"/>
      <use xlink:href="#Geist-Regular-69" x="579.599884"/>
      <use xlink:href="#Geist-Regular-6d" x="603.999878"/>
      <use xlink:href="#Geist-Regular-65" x="691.69986"/>
     </g>
    </g>
   </g>
   <g id="matplotlib.axis_2">
    <g id="ytick_1">
     <g id="line2d_1">
      <path d="M 48.15 530.82 
L 595.14 530.82 
" clip-path="url(#p0b69b5eadd)" style="fill: none; stroke: #cccccc; stroke-linecap: round"/>
     </g>
     <g id="text_6">
      <!-- 0 -->
      <g style="fill: #262626" transform="translate(31.269687 534.725) scale(0.11 -0.11)">
       <use xlink:href="#Geist-Regular-30"/>
      </g>
     </g>
    </g>
    <g id="ytick_2">
     <g id="line2d_2">
      <path d="M 48.15 470.184365 
L 595.14 470.184365 
" clip-path="url(#p0b69b5eadd)" style="fill: none; stroke: #cccccc; stroke-linecap: round"/>
     </g>
     <g id="text_7">
      <!-- 2 -->
      <g style="fill: #262626" transform="translate(31.840312 474.089365) scale(0.11 -0.11)">
       <use xlink:href="#Geist-Regular-32"/>
      </g>
     </g>
    </g>
    <g id="ytick_3">
     <g id="line2d_3">
      <path d="M 48.15 409.548731 
L 595.14 409.548731 
" clip-path="url(#p0b69b5eadd)" style="fill: none; stroke: #cccccc; stroke-linecap: round"/>
     </g>
     <g id="text_8">
      <!-- 4 -->
      <g style="fill: #262626" transform="translate(31.665 413.453731) scale(0.11 -0.11)">
       <defs>
        <path id="Geist-Regular-34" d="M 2630 986 
L 320 986 
L 320 1485 
L 2592 4544 
L 3181 4544 
L 3181 1523 
L 3744 1523 
L 3744 986 
L 3181 986 
L 3181 0 
L 2630 0 
L 2630 986 
z
M 2630 1523 
L 2630 3699 
L 986 1523 
L 2630 1523 
z
" transform="scale(0.015625)"/>
       </defs>
       <use xlink:href="#Geist-Regular-34"/>
      </g>
     </g>
    </g>
    <g id="ytick_4">
     <g id="line2d_4">
      <path d="M 48.15 348.913096 
L 595.14 348.913096 
" clip-path="url(#p0b69b5eadd)" style="fill: none; stroke: #cccccc; stroke-linecap: round"/>
     </g>
     <g id="text_9">
      <!-- 6 -->
      <g style="fill: #262626" transform="translate(31.785312 352.818096) scale(0.11 -0.11)">
       <use xlink:href="#Geist-Regular-36"/>
      </g>
     </g>
    </g>
    <g id="ytick_5">
     <g id="line2d_5">
      <path d="M 48.15 288.277461 
L 595.14 288.277461 
" clip-path="url(#p0b69b5eadd)" style="fill: none; stroke: #cccccc; stroke-linecap: round"/>
     </g>
     <g id="text_10">
      <!-- 8 -->
      <g style="fill: #262626" transform="translate(32.005313 292.182461) scale(0.11 -0.11)">
       <defs>
        <path id="Geist-Regular-38" d="M 1933 -102 
Q 1178 -102 717 250 
Q 256 602 256 1248 
Q 256 1683 489 1990 
Q 723 2298 1133 2445 
Q 474 2720 474 3398 
Q 474 3757 656 4041 
Q 838 4326 1168 4486 
Q 1498 4646 1933 4646 
Q 2368 4646 2697 4486 
Q 3027 4326 3209 4041 
Q 3392 3757 3392 3398 
Q 3392 2720 2733 2445 
Q 3142 2298 3376 1990 
Q 3610 1683 3610 1248 
Q 3610 602 3149 250 
Q 2688 -102 1933 -102 
z
M 1933 435 
Q 2451 435 2742 646 
Q 3034 858 3034 1280 
Q 3034 1690 2758 1923 
Q 2483 2157 1933 2157 
Q 1382 2157 1107 1923 
Q 832 1690 832 1280 
Q 832 858 1123 646 
Q 1414 435 1933 435 
z
M 1933 2669 
Q 2362 2669 2589 2854 
Q 2816 3040 2816 3398 
Q 2816 3731 2589 3920 
Q 2362 4109 1933 4109 
Q 1504 4109 1277 3920 
Q 1050 3731 1050 3398 
Q 1050 3040 1277 2854 
Q 1504 2669 1933 2669 
z
" transform="scale(0.015625)"/>
       </defs>
       <use xlink:href="#Geist-Regular-38"/>
      </g>
     </g>
    </g>
    <g id="ytick_6">
     <g id="line2d_6">
      <path d="M 48.15 227.641827 
L 595.14 227.641827 
" clip-path="url(#p0b69b5eadd)" style="fill: none; stroke: #cccccc; stroke-linecap: round"/>
     </g>
     <g id="text_11">
      <!-- 10 -->
      <g style="fill: #262626" transform="translate(27.045 231.546827) scale(0.11 -0.11)">
       <use xlink:href="#Geist-Regular-31"/>
       <use xlink:href="#Geist-Regular-30" x="38.399994"/>
      </g>
     </g>
    </g>
    <g id="ytick_7">
     <g id="line2d_7">
      <path d="M 48.15 167.006192 
L 595.14 167.006192 
" clip-path="url(#p0b69b5eadd)" style="fill: none; stroke: #cccccc; stroke-linecap: round"/>
     </g>
     <g id="text_12">
      <!-- 12 -->
      <g style="fill: #262626" transform="translate(27.615625 170.911192) scale(0.11 -0.11)">
       <use xlink:href="#Geist-Regular-31"/>
       <use xlink:href="#Geist-Regular-32" x="38.399994"/>
      </g>
     </g>
    </g>
    <g id="ytick_8">
     <g id="line2d_8">
      <path d="M 48.15 106.370557 
L 595.14 106.370557 
" clip-path="url(#p0b69b5eadd)" style="fill: none; stroke: #cccccc; stroke-linecap: round"/>
     </g>
     <g id="text_13">
      <!-- 14 -->
      <g style="fill: #262626" transform="translate(27.440312 110.275557) scale(0.11 -0.11)">
       <use xlink:href="#Geist-Regular-31"/>
       <use xlink:href="#Geist-Regular-34" x="38.399994"/>
      </g>
     </g>
    </g>
    <g id="text_14">
     <!-- Time (s) -->
     <g style="fill: #262626" transform="translate(21.245 315.966562) rotate(-90) scale(0.12 -0.12)">
      <defs>
       <path id="Geist-Regular-54" d="M 1574 4006 
L 160 4006 
L 160 4544 
L 3539 4544 
L 3539 4006 
L 2125 4006 
L 2125 0 
L 1574 0 
L 1574 4006 
z
" transform="scale(0.015625)"/>
       <path id="Geist-Regular-28" d="M 1203 -704 
Q 314 634 314 2048 
Q 314 3469 1203 4800 
L 1683 4800 
Q 870 3418 870 2048 
Q 870 691 1683 -704 
L 1203 -704 
z
" transform="scale(0.015625)"/>
       <path id="Geist-Regular-73" d="M 1766 -77 
Q 1101 -77 720 236 
Q 339 550 301 1069 
L 864 1107 
Q 966 435 1766 435 
Q 2125 435 2326 550 
Q 2528 666 2528 909 
Q 2528 1050 2461 1136 
Q 2394 1222 2211 1289 
Q 2029 1357 1664 1421 
Q 954 1549 669 1782 
Q 384 2016 384 2432 
Q 384 2893 723 3181 
Q 1062 3469 1664 3469 
Q 2253 3469 2598 3161 
Q 2944 2854 3027 2381 
L 2464 2342 
Q 2406 2624 2198 2790 
Q 1990 2957 1658 2957 
Q 1306 2957 1126 2819 
Q 947 2682 947 2458 
Q 947 2214 1126 2092 
Q 1306 1971 1766 1894 
Q 2285 1805 2569 1680 
Q 2854 1555 2972 1372 
Q 3091 1190 3091 909 
Q 3091 448 2716 185 
Q 2342 -77 1766 -77 
z
" transform="scale(0.015625)"/>
       <path id="Geist-Regular-29" d="M 173 -704 
Q 986 672 986 2048 
Q 986 3430 173 4800 
L 653 4800 
Q 1542 3482 1542 2048 
Q 1542 614 653 -704 
L 173 -704 
z
" transform="scale(0.015625)"/>
      </defs>
      <use xlink:href="#Geist-Regular-54"/>
      <use xlink:href="#Geist-Regular-69" x="57.799988"/>
      <use xlink:href="#Geist-Regular-6d" x="82.199982"/>
      <use xlink:href="#Geist-Regular-65" x="169.899963"/>
      <use xlink:href="#Geist-Regular-20" x="226.59996"/>
      <use xlink:href="#Geist-Regular-28" x="251.599945"/>
      <use xlink:href="#Geist-Regular-73" x="280.59993"/>
      <use xlink:href="#Geist-Regular-29" x="333.599915"/>
     </g>
    </g>
   </g>
   <g id="patch_3">
    <path d="M 89.17425 229.29065 
L 143.87325 229.29065 
L 143.87325 226.709115 
L 89.17425 226.709115 
L 89.17425 229.29065 
z
" clip-path="url(#p0b69b5eadd)" style="fill: #5875a4; stroke: #4c4c4c; stroke-linejoin: miter"/>
   </g>
   <g id="line2d_9">
    <path d="M 116.52375 229.29065 
L 116.52375 229.626303 
" clip-path="url(#p0b69b5eadd)" style="fill: none; stroke: #4c4c4c"/>
   </g>
   <g id="line2d_10">
    <path d="M 116.52375 226.709115 
L 116.52375 224.232904 
" clip-path="url(#p0b69b5eadd)" style="fill: none; stroke: #4c4c4c"/>
   </g>
   <g id="line2d_11">
    <path d="M 102.849 229.626303 
L 130.1985 229.626303 
" clip-path="url(#p0b69b5eadd)" style="fill: none; stroke: #4c4c4c; stroke-linecap: round"/>
   </g>
   <g id="line2d_12">
    <path d="M 102.849 224.232904 
L 130.1985 224.232904 
" clip-path="url(#p0b69b5eadd)" style="fill: none; stroke: #4c4c4c; stroke-linecap: round"/>
   </g>
   <g id="patch_4">
    <path d="M 225.92175 239.428584 
L 280.62075 239.428584 
L 280.62075 238.698626 
L 225.92175 238.698626 
L 225.92175 239.428584 
z
" clip-path="url(#p0b69b5eadd)" style="fill: #cc8963; stroke: #5b5b5b; stroke-linejoin: miter"/>
   </g>
   <g id="line2d_13">
    <path d="M 253.27125 239.428584 
L 253.27125 240.424586 
" clip-path="url(#p0b69b5eadd)" style="fill: none; stroke: #5b5b5b"/>
   </g>
   <g id="line2d_14">
    <path d="M 253.27125 238.698626 
L 253.27125 238.56998 
" clip-path="url(#p0b69b5eadd)" style="fill: none; stroke: #5b5b5b"/>
   </g>
   <g id="line2d_15">
    <path d="M 239.5965 240.424586 
L 266.946 240.424586 
" clip-path="url(#p0b69b5eadd)" style="fill: none; stroke: #5b5b5b; stroke-linecap: round"/>
   </g>
   <g id="line2d_16">
    <path d="M 239.5965 238.56998 
L 266.946 238.56998 
" clip-path="url(#p0b69b5eadd)" style="fill: none; stroke: #5b5b5b; stroke-linecap: round"/>
   </g>
   <g id="patch_5">
    <path d="M 362.66925 98.686131 
L 417.36825 98.686131 
L 417.36825 95.92564 
L 362.66925 95.92564 
L 362.66925 98.686131 
z
" clip-path="url(#p0b69b5eadd)" style="fill: #5f9e6e; stroke: #4c4c4c; stroke-linejoin: miter"/>
   </g>
   <g id="line2d_17">
    <path d="M 390.01875 98.686131 
L 390.01875 99.191581 
" clip-path="url(#p0b69b5eadd)" style="fill: none; stroke: #4c4c4c"/>
   </g>
   <g id="line2d_18">
    <path d="M 390.01875 95.92564 
L 390.01875 95.294503 
" clip-path="url(#p0b69b5eadd)" style="fill: none; stroke: #4c4c4c"/>
   </g>
   <g id="line2d_19">
    <path d="M 376.344 99.191581 
L 403.6935 99.191581 
" clip-path="url(#p0b69b5eadd)" style="fill: none; stroke: #4c4c4c; stroke-linecap: round"/>
   </g>
   <g id="line2d_20">
    <path d="M 376.344 95.294503 
L 403.6935 95.294503 
" clip-path="url(#p0b69b5eadd)" style="fill: none; stroke: #4c4c4c; stroke-linecap: round"/>
   </g>
   <g id="patch_6">
    <path d="M 499.41675 103.559723 
L 554.11575 103.559723 
L 554.11575 91.214194 
L 499.41675 91.214194 
L 499.41675 103.559723 
z
" clip-path="url(#p0b69b5eadd)" style="fill: #b55d60; stroke: #525252; stroke-linejoin: miter"/>
   </g>
   <g id="line2d_21">
    <path d="M 526.76625 103.559723 
L 526.76625 105.957711 
" clip-path="url(#p0b69b5eadd)" style="fill: none; stroke: #525252"/>
   </g>
   <g id="line2d_22">
    <path d="M 526.76625 91.214194 
L 526.76625 76.169974 
" clip-path="url(#p0b69b5eadd)" style="fill: none; stroke: #525252"/>
   </g>
   <g id="line2d_23">
    <path d="M 513.0915 105.957711 
L 540.441 105.957711 
" clip-path="url(#p0b69b5eadd)" style="fill: none; stroke: #525252; stroke-linecap: round"/>
   </g>
   <g id="line2d_24">
    <path d="M 513.0915 76.169974 
L 540.441 76.169974 
" clip-path="url(#p0b69b5eadd)" style="fill: none; stroke: #525252; stroke-linecap: round"/>
   </g>
   <g id="line2d_25">
    <path d="M 89.17425 228.167811 
L 143.87325 228.167811 
" clip-path="url(#p0b69b5eadd)" style="fill: none; stroke: #4c4c4c"/>
   </g>
   <g id="line2d_26">
    <path d="M 225.92175 239.245022 
L 280.62075 239.245022 
" clip-path="url(#p0b69b5eadd)" style="fill: none; stroke: #5b5b5b"/>
   </g>
   <g id="line2d_27">
    <path d="M 362.66925 96.799968 
L 417.36825 96.799968 
" clip-path="url(#p0b69b5eadd)" style="fill: none; stroke: #4c4c4c"/>
   </g>
   <g id="line2d_28">
    <path d="M 499.41675 96.23298 
L 554.11575 96.23298 
" clip-path="url(#p0b69b5eadd)" style="fill: none; stroke: #525252"/>
   </g>
   <g id="patch_7">
    <path d="M 48.15 530.82 
L 48.15 57.6 
" style="fill: none; stroke: #cccccc; stroke-width: 1.25; stroke-linejoin: miter; stroke-linecap: square"/>
   </g>
   <g id="patch_8">
    <path d="M 48.15 530.82 
L 595.14 530.82 
" style="fill: none; stroke: #cccccc; stroke-width: 1.25; stroke-linejoin: miter; stroke-linecap: square"/>
   </g>
   <g id="text_15">
    <!-- Mode = single -->
    <g style="fill: #262626" transform="translate(282.139687 51.6) scale(0.12 -0.12)">
     <defs>
      <path id="Geist-Regular-4d" d="M 589 4544 
L 1357 4544 
L 2810 602 
L 4256 4544 
L 5024 4544 
L 5024 0 
L 4474 0 
L 4474 3520 
L 3174 0 
L 2438 0 
L 1139 3520 
L 1139 0 
L 589 0 
L 589 4544 
z
" transform="scale(0.015625)"/>
      <path id="Geist-Regular-64" d="M 1734 -77 
Q 1299 -77 972 140 
Q 646 358 473 758 
Q 301 1158 301 1696 
Q 301 2234 473 2634 
Q 646 3034 972 3251 
Q 1299 3469 1734 3469 
Q 2080 3469 2358 3321 
Q 2637 3174 2778 2918 
L 2778 4544 
L 3315 4544 
L 3315 0 
L 2829 0 
L 2810 512 
Q 2669 237 2381 80 
Q 2093 -77 1734 -77 
z
M 1843 435 
Q 2291 435 2534 771 
Q 2778 1107 2778 1696 
Q 2778 2291 2534 2624 
Q 2291 2957 1843 2957 
Q 1395 2957 1129 2621 
Q 864 2285 864 1696 
Q 864 1114 1129 774 
Q 1395 435 1843 435 
z
" transform="scale(0.015625)"/>
      <path id="Geist-Regular-3d" d="M 589 2822 
L 3635 2822 
L 3635 2323 
L 589 2323 
L 589 2822 
z
M 589 1504 
L 3635 1504 
L 3635 1005 
L 589 1005 
L 589 1504 
z
" transform="scale(0.015625)"/>
      <path id="Geist-Regular-6c" d="M 1184 0 
Q 870 0 691 157 
Q 512 314 512 640 
L 518 4544 
L 1056 4544 
L 1056 685 
Q 1056 474 1267 474 
L 1562 474 
L 1562 0 
L 1184 0 
z
" transform="scale(0.015625)"/>
     </defs>
     <use xlink:href="#Geist-Regular-4d"/>
     <use xlink:href="#Geist-Regular-6f" x="87.699982"/>
     <use xlink:href="#Geist-Regular-64" x="145.599976"/>
     <use xlink:href="#Geist-Regular-65" x="205.399963"/>
     <use xlink:href="#Geist-Regular-20" x="262.09996"/>
     <use xlink:href="#Geist-Regular-3d" x="287.099945"/>
     <use xlink:href="#Geist-Regular-20" x="353.09993"/>
     <use xlink:href="#Geist-Regular-73" x="378.099915"/>
     <use xlink:href="#Geist-Regular-69" x="431.099899"/>
     <use xlink:href="#Geist-Regular-6e" x="455.499893"/>
     <use xlink:href="#Geist-Regular-67" x="513.599884"/>
     <use xlink:href="#Geist-Regular-6c" x="573.299881"/>
     <use xlink:href="#Geist-Regular-65" x="601.699875"/>
    </g>
   </g>
  </g>
  <g id="axes_2">
   <g id="patch_9">
    <path d="M 608.1 530.82 
L 1155.09 530.82 
L 1155.09 57.6 
L 608.1 57.6 
z
" style="fill: #ffffff"/>
   </g>
   <g id="matplotlib.axis_3">
    <g id="xtick_5">
     <g id="text_16">
      <!-- 3.12.6 -->
      <g style="fill: #262626" transform="translate(661.875547 548.13) scale(0.11 -0.11)">
       <use xlink:href="#Geist-Regular-33"/>
       <use xlink:href="#Geist-Regular-2e" x="61.299988"/>
       <use xlink:href="#Geist-Regular-31" x="81.999985"/>
       <use xlink:href="#Geist-Regular-32" x="120.399979"/>
       <use xlink:href="#Geist-Regular-2e" x="182.299973"/>
       <use xlink:href="#Geist-Regular-36" x="202.999969"/>
      </g>
     </g>
    </g>
    <g id="xtick_6">
     <g id="text_17">
      <!-- 3.13.0rc2 -->
      <g style="fill: #262626" transform="translate(789.856563 548.13) scale(0.11 -0.11)">
       <use xlink:href="#Geist-Regular-33"/>
       <use xlink:href="#Geist-Regular-2e" x="61.299988"/>
       <use xlink:href="#Geist-Regular-31" x="81.999985"/>
       <use xlink:href="#Geist-Regular-33" x="120.399979"/>
       <use xlink:href="#Geist-Regular-2e" x="181.699966"/>
       <use xlink:href="#Geist-Regular-30" x="202.399963"/>
       <use xlink:href="#Geist-Regular-72" x="269.499954"/>
       <use xlink:href="#Geist-Regular-63" x="307.699951"/>
       <use xlink:href="#Geist-Regular-32" x="362.899948"/>
      </g>
     </g>
    </g>
    <g id="xtick_7">
     <g id="text_18">
      <!-- 3.13.0rc2t -->
      <g style="fill: #262626" transform="translate(924.431563 548.13) scale(0.11 -0.11)">
       <use xlink:href="#Geist-Regular-33"/>
       <use xlink:href="#Geist-Regular-2e" x="61.299988"/>
       <use xlink:href="#Geist-Regular-31" x="81.999985"/>
       <use xlink:href="#Geist-Regular-33" x="120.399979"/>
       <use xlink:href="#Geist-Regular-2e" x="181.699966"/>
       <use xlink:href="#Geist-Regular-30" x="202.399963"/>
       <use xlink:href="#Geist-Regular-72" x="269.499954"/>
       <use xlink:href="#Geist-Regular-63" x="307.699951"/>
       <use xlink:href="#Geist-Regular-32" x="362.899948"/>
       <use xlink:href="#Geist-Regular-74" x="424.799942"/>
      </g>
     </g>
    </g>
    <g id="xtick_8">
     <g id="text_19">
      <!-- 3.13.0rc2t-g1 -->
      <g style="fill: #262626" transform="translate(1053.445547 548.305313) scale(0.11 -0.11)">
       <use xlink:href="#Geist-Regular-33"/>
       <use xlink:href="#Geist-Regular-2e" x="61.299988"/>
       <use xlink:href="#Geist-Regular-31" x="81.999985"/>
       <use xlink:href="#Geist-Regular-33" x="120.399979"/>
       <use xlink:href="#Geist-Regular-2e" x="181.699966"/>
       <use xlink:href="#Geist-Regular-30" x="202.399963"/>
       <use xlink:href="#Geist-Regular-72" x="269.499954"/>
       <use xlink:href="#Geist-Regular-63" x="307.699951"/>
       <use xlink:href="#Geist-Regular-32" x="362.899948"/>
       <use xlink:href="#Geist-Regular-74" x="424.799942"/>
       <use xlink:href="#Geist-Regular-2d" x="464.299927"/>
       <use xlink:href="#Geist-Regular-67" x="506.799911"/>
       <use xlink:href="#Geist-Regular-31" x="566.499908"/>
      </g>
     </g>
    </g>
    <g id="text_20">
     <!-- Python Runtime -->
     <g style="fill: #262626" transform="translate(836.690625 562.618906) scale(0.12 -0.12)">
      <use xlink:href="#Geist-Regular-50"/>
      <use xlink:href="#Geist-Regular-79" x="64.999985"/>
      <use xlink:href="#Geist-Regular-74" x="118.699982"/>
      <use xlink:href="#Geist-Regular-68" x="158.199966"/>
      <use xlink:href="#Geist-Regular-6f" x="216.299957"/>
      <use xlink:href="#Geist-Regular-6e" x="274.199951"/>
      <use xlink:href="#Geist-Regular-20" x="332.299942"/>
      <use xlink:href="#Geist-Regular-52" x="357.299927"/>
      <use xlink:href="#Geist-Regular-75" x="424.499924"/>
      <use xlink:href="#Geist-Regular-6e" x="481.999908"/>
      <use xlink:href="#Geist-Regular-74" x="540.099899"/>
      <use xlink:href="#Geist-Regular-69" x="579.599884"/>
      <use xlink:href="#Geist-Regular-6d" x="603.999878"/>
      <use xlink:href="#Geist-Regular-65" x="691.69986"/>
     </g>
    </g>
   </g>
   <g id="matplotlib.axis_4">
    <g id="ytick_9">
     <g id="line2d_29">
      <path d="M 608.1 530.82 
L 1155.09 530.82 
" clip-path="url(#p75098a165c)" style="fill: none; stroke: #cccccc; stroke-linecap: round"/>
     </g>
    </g>
    <g id="ytick_10">
     <g id="line2d_30">
      <path d="M 608.1 470.184365 
L 1155.09 470.184365 
" clip-path="url(#p75098a165c)" style="fill: none; stroke: #cccccc; stroke-linecap: round"/>
     </g>
    </g>
    <g id="ytick_11">
     <g id="line2d_31">
      <path d="M 608.1 409.548731 
L 1155.09 409.548731 
" clip-path="url(#p75098a165c)" style="fill: none; stroke: #cccccc; stroke-linecap: round"/>
     </g>
    </g>
    <g id="ytick_12">
     <g id="line2d_32">
      <path d="M 608.1 348.913096 
L 1155.09 348.913096 
" clip-path="url(#p75098a165c)" style="fill: none; stroke: #cccccc; stroke-linecap: round"/>
     </g>
    </g>
    <g id="ytick_13">
     <g id="line2d_33">
      <path d="M 608.1 288.277461 
L 1155.09 288.277461 
" clip-path="url(#p75098a165c)" style="fill: none; stroke: #cccccc; stroke-linecap: round"/>
     </g>
    </g>
    <g id="ytick_14">
     <g id="line2d_34">
      <path d="M 608.1 227.641827 
L 1155.09 227.641827 
" clip-path="url(#p75098a165c)" style="fill: none; stroke: #cccccc; stroke-linecap: round"/>
     </g>
    </g>
    <g id="ytick_15">
     <g id="line2d_35">
      <path d="M 608.1 167.006192 
L 1155.09 167.006192 
" clip-path="url(#p75098a165c)" style="fill: none; stroke: #cccccc; stroke-linecap: round"/>
     </g>
    </g>
    <g id="ytick_16">
     <g id="line2d_36">
      <path d="M 608.1 106.370557 
L 1155.09 106.370557 
" clip-path="url(#p75098a165c)" style="fill: none; stroke: #cccccc; stroke-linecap: round"/>
     </g>
    </g>
   </g>
   <g id="patch_10">
    <path d="M 649.12425 233.885617 
L 703.82325 233.885617 
L 703.82325 231.236476 
L 649.12425 231.236476 
L 649.12425 233.885617 
z
" clip-path="url(#p75098a165c)" style="fill: #5875a4; stroke: #4c4c4c; stroke-linejoin: miter"/>
   </g>
   <g id="line2d_37">
    <path d="M 676.47375 233.885617 
L 676.47375 235.794305 
" clip-path="url(#p75098a165c)" style="fill: none; stroke: #4c4c4c"/>
   </g>
   <g id="line2d_38">
    <path d="M 676.47375 231.236476 
L 676.47375 228.788156 
" clip-path="url(#p75098a165c)" style="fill: none; stroke: #4c4c4c"/>
   </g>
   <g id="line2d_39">
    <path d="M 662.799 235.794305 
L 690.1485 235.794305 
" clip-path="url(#p75098a165c)" style="fill: none; stroke: #4c4c4c; stroke-linecap: round"/>
   </g>
   <g id="line2d_40">
    <path d="M 662.799 228.788156 
L 690.1485 228.788156 
" clip-path="url(#p75098a165c)" style="fill: none; stroke: #4c4c4c; stroke-linecap: round"/>
   </g>
   <g id="patch_11">
    <path d="M 785.87175 238.487441 
L 840.57075 238.487441 
L 840.57075 233.40614 
L 785.87175 233.40614 
L 785.87175 238.487441 
z
" clip-path="url(#p75098a165c)" style="fill: #cc8963; stroke: #5b5b5b; stroke-linejoin: miter"/>
   </g>
   <g id="line2d_41">
    <path d="M 813.22125 238.487441 
L 813.22125 238.758304 
" clip-path="url(#p75098a165c)" style="fill: none; stroke: #5b5b5b"/>
   </g>
   <g id="line2d_42">
    <path d="M 813.22125 233.40614 
L 813.22125 231.213216 
" clip-path="url(#p75098a165c)" style="fill: none; stroke: #5b5b5b"/>
   </g>
   <g id="line2d_43">
    <path d="M 799.5465 238.758304 
L 826.896 238.758304 
" clip-path="url(#p75098a165c)" style="fill: none; stroke: #5b5b5b; stroke-linecap: round"/>
   </g>
   <g id="line2d_44">
    <path d="M 799.5465 231.213216 
L 826.896 231.213216 
" clip-path="url(#p75098a165c)" style="fill: none; stroke: #5b5b5b; stroke-linecap: round"/>
   </g>
   <g id="patch_12">
    <path d="M 922.61925 413.131813 
L 977.31825 413.131813 
L 977.31825 409.726712 
L 922.61925 409.726712 
L 922.61925 413.131813 
z
" clip-path="url(#p75098a165c)" style="fill: #5f9e6e; stroke: #4c4c4c; stroke-linejoin: miter"/>
   </g>
   <g id="line2d_45">
    <path d="M 949.96875 413.131813 
L 949.96875 414.481045 
" clip-path="url(#p75098a165c)" style="fill: none; stroke: #4c4c4c"/>
   </g>
   <g id="line2d_46">
    <path d="M 949.96875 409.726712 
L 949.96875 407.153172 
" clip-path="url(#p75098a165c)" style="fill: none; stroke: #4c4c4c"/>
   </g>
   <g id="line2d_47">
    <path d="M 936.294 414.481045 
L 963.6435 414.481045 
" clip-path="url(#p75098a165c)" style="fill: none; stroke: #4c4c4c; stroke-linecap: round"/>
   </g>
   <g id="line2d_48">
    <path d="M 936.294 407.153172 
L 963.6435 407.153172 
" clip-path="url(#p75098a165c)" style="fill: none; stroke: #4c4c4c; stroke-linecap: round"/>
   </g>
   <g id="patch_13">
    <path d="M 1059.36675 119.808399 
L 1114.06575 119.808399 
L 1114.06575 114.499646 
L 1059.36675 114.499646 
L 1059.36675 119.808399 
z
" clip-path="url(#p75098a165c)" style="fill: #b55d60; stroke: #525252; stroke-linejoin: miter"/>
   </g>
   <g id="line2d_49">
    <path d="M 1086.71625 119.808399 
L 1086.71625 125.847102 
" clip-path="url(#p75098a165c)" style="fill: none; stroke: #525252"/>
   </g>
   <g id="line2d_50">
    <path d="M 1086.71625 114.499646 
L 1086.71625 111.777021 
" clip-path="url(#p75098a165c)" style="fill: none; stroke: #525252"/>
   </g>
   <g id="line2d_51">
    <path d="M 1073.0415 125.847102 
L 1100.391 125.847102 
" clip-path="url(#p75098a165c)" style="fill: none; stroke: #525252; stroke-linecap: round"/>
   </g>
   <g id="line2d_52">
    <path d="M 1073.0415 111.777021 
L 1100.391 111.777021 
" clip-path="url(#p75098a165c)" style="fill: none; stroke: #525252; stroke-linecap: round"/>
   </g>
   <g id="line2d_53">
    <path d="M 649.12425 232.771436 
L 703.82325 232.771436 
" clip-path="url(#p75098a165c)" style="fill: none; stroke: #4c4c4c"/>
   </g>
   <g id="line2d_54">
    <path d="M 785.87175 234.753868 
L 840.57075 234.753868 
" clip-path="url(#p75098a165c)" style="fill: none; stroke: #5b5b5b"/>
   </g>
   <g id="line2d_55">
    <path d="M 922.61925 411.589009 
L 977.31825 411.589009 
" clip-path="url(#p75098a165c)" style="fill: none; stroke: #4c4c4c"/>
   </g>
   <g id="line2d_56">
    <path d="M 1059.36675 117.426708 
L 1114.06575 117.426708 
" clip-path="url(#p75098a165c)" style="fill: none; stroke: #525252"/>
   </g>
   <g id="patch_14">
    <path d="M 608.1 530.82 
L 608.1 57.6 
" style="fill: none; stroke: #cccccc; stroke-width: 1.25; stroke-linejoin: miter; stroke-linecap: square"/>
   </g>
   <g id="patch_15">
    <path d="M 608.1 530.82 
L 1155.09 530.82 
" style="fill: none; stroke: #cccccc; stroke-width: 1.25; stroke-linejoin: miter; stroke-linecap: square"/>
   </g>
   <g id="text_21">
    <!-- Mode = multi-threaded -->
    <g style="fill: #262626" transform="translate(816.559688 51.6) scale(0.12 -0.12)">
     <defs>
      <path id="Geist-Regular-61" d="M 1446 -77 
Q 915 -77 608 166 
Q 301 410 301 845 
Q 301 1280 557 1529 
Q 813 1779 1370 1882 
L 2573 2106 
Q 2573 2957 1766 2957 
Q 1088 2957 928 2349 
L 358 2394 
Q 454 2886 828 3177 
Q 1203 3469 1766 3469 
Q 2413 3469 2761 3104 
Q 3110 2739 3110 2086 
L 3110 685 
Q 3110 570 3152 522 
Q 3194 474 3290 474 
L 3424 474 
L 3424 0 
Q 3347 -13 3219 -13 
Q 2912 -13 2761 115 
Q 2611 243 2579 525 
Q 2451 262 2134 92 
Q 1818 -77 1446 -77 
z
M 1498 397 
Q 1997 397 2285 678 
Q 2573 960 2573 1395 
L 2573 1638 
L 1472 1434 
Q 1139 1376 1001 1245 
Q 864 1114 864 896 
Q 864 659 1030 528 
Q 1197 397 1498 397 
z
" transform="scale(0.015625)"/>
     </defs>
     <use xlink:href="#Geist-Regular-4d"/>
     <use xlink:href="#Geist-Regular-6f" x="87.699982"/>
     <use xlink:href="#Geist-Regular-64" x="145.599976"/>
     <use xlink:href="#Geist-Regular-65" x="205.399963"/>
     <use xlink:href="#Geist-Regular-20" x="262.09996"/>
     <use xlink:href="#Geist-Regular-3d" x="287.099945"/>
     <use xlink:href="#Geist-Regular-20" x="353.09993"/>
     <use xlink:href="#Geist-Regular-6d" x="378.099915"/>
     <use xlink:href="#Geist-Regular-75" x="465.799896"/>
     <use xlink:href="#Geist-Regular-6c" x="523.299881"/>
     <use xlink:href="#Geist-Regular-74" x="551.699875"/>
     <use xlink:href="#Geist-Regular-69" x="591.19986"/>
     <use xlink:href="#Geist-Regular-2d" x="615.599854"/>
     <use xlink:href="#Geist-Regular-74" x="658.099838"/>
     <use xlink:href="#Geist-Regular-68" x="697.599823"/>
     <use xlink:href="#Geist-Regular-72" x="755.699814"/>
     <use xlink:href="#Geist-Regular-65" x="793.899811"/>
     <use xlink:href="#Geist-Regular-61" x="850.599808"/>
     <use xlink:href="#Geist-Regular-64" x="907.599792"/>
     <use xlink:href="#Geist-Regular-65" x="967.39978"/>
     <use xlink:href="#Geist-Regular-64" x="1024.099777"/>
    </g>
   </g>
  </g>
  <g id="axes_3">
   <g id="patch_16">
    <path d="M 1168.05 530.82 
L 1715.04 530.82 
L 1715.04 57.6 
L 1168.05 57.6 
z
" style="fill: #ffffff"/>
   </g>
   <g id="matplotlib.axis_5">
    <g id="xtick_9">
     <g id="text_22">
      <!-- 3.12.6 -->
      <g style="fill: #262626" transform="translate(1221.825547 548.13) scale(0.11 -0.11)">
       <use xlink:href="#Geist-Regular-33"/>
       <use xlink:href="#Geist-Regular-2e" x="61.299988"/>
       <use xlink:href="#Geist-Regular-31" x="81.999985"/>
       <use xlink:href="#Geist-Regular-32" x="120.399979"/>
       <use xlink:href="#Geist-Regular-2e" x="182.299973"/>
       <use xlink:href="#Geist-Regular-36" x="202.999969"/>
      </g>
     </g>
    </g>
    <g id="xtick_10">
     <g id="text_23">
      <!-- 3.13.0rc2 -->
      <g style="fill: #262626" transform="translate(1349.806562 548.13) scale(0.11 -0.11)">
       <use xlink:href="#Geist-Regular-33"/>
       <use xlink:href="#Geist-Regular-2e" x="61.299988"/>
       <use xlink:href="#Geist-Regular-31" x="81.999985"/>
       <use xlink:href="#Geist-Regular-33" x="120.399979"/>
       <use xlink:href="#Geist-Regular-2e" x="181.699966"/>
       <use xlink:href="#Geist-Regular-30" x="202.399963"/>
       <use xlink:href="#Geist-Regular-72" x="269.499954"/>
       <use xlink:href="#Geist-Regular-63" x="307.699951"/>
       <use xlink:href="#Geist-Regular-32" x="362.899948"/>
      </g>
     </g>
    </g>
    <g id="xtick_11">
     <g id="text_24">
      <!-- 3.13.0rc2t -->
      <g style="fill: #262626" transform="translate(1484.381562 548.13) scale(0.11 -0.11)">
       <use xlink:href="#Geist-Regular-33"/>
       <use xlink:href="#Geist-Regular-2e" x="61.299988"/>
       <use xlink:href="#Geist-Regular-31" x="81.999985"/>
       <use xlink:href="#Geist-Regular-33" x="120.399979"/>
       <use xlink:href="#Geist-Regular-2e" x="181.699966"/>
       <use xlink:href="#Geist-Regular-30" x="202.399963"/>
       <use xlink:href="#Geist-Regular-72" x="269.499954"/>
       <use xlink:href="#Geist-Regular-63" x="307.699951"/>
       <use xlink:href="#Geist-Regular-32" x="362.899948"/>
       <use xlink:href="#Geist-Regular-74" x="424.799942"/>
      </g>
     </g>
    </g>
    <g id="xtick_12">
     <g id="text_25">
      <!-- 3.13.0rc2t-g1 -->
      <g style="fill: #262626" transform="translate(1613.395547 548.305313) scale(0.11 -0.11)">
       <use xlink:href="#Geist-Regular-33"/>
       <use xlink:href="#Geist-Regular-2e" x="61.299988"/>
       <use xlink:href="#Geist-Regular-31" x="81.999985"/>
       <use xlink:href="#Geist-Regular-33" x="120.399979"/>
       <use xlink:href="#Geist-Regular-2e" x="181.699966"/>
       <use xlink:href="#Geist-Regular-30" x="202.399963"/>
       <use xlink:href="#Geist-Regular-72" x="269.499954"/>
       <use xlink:href="#Geist-Regular-63" x="307.699951"/>
       <use xlink:href="#Geist-Regular-32" x="362.899948"/>
       <use xlink:href="#Geist-Regular-74" x="424.799942"/>
       <use xlink:href="#Geist-Regular-2d" x="464.299927"/>
       <use xlink:href="#Geist-Regular-67" x="506.799911"/>
       <use xlink:href="#Geist-Regular-31" x="566.499908"/>
      </g>
     </g>
    </g>
    <g id="text_26">
     <!-- Python Runtime -->
     <g style="fill: #262626" transform="translate(1396.640625 562.618906) scale(0.12 -0.12)">
      <use xlink:href="#Geist-Regular-50"/>
      <use xlink:href="#Geist-Regular-79" x="64.999985"/>
      <use xlink:href="#Geist-Regular-74" x="118.699982"/>
      <use xlink:href="#Geist-Regular-68" x="158.199966"/>
      <use xlink:href="#Geist-Regular-6f" x="216.299957"/>
      <use xlink:href="#Geist-Regular-6e" x="274.199951"/>
      <use xlink:href="#Geist-Regular-20" x="332.299942"/>
      <use xlink:href="#Geist-Regular-52" x="357.299927"/>
      <use xlink:href="#Geist-Regular-75" x="424.499924"/>
      <use xlink:href="#Geist-Regular-6e" x="481.999908"/>
      <use xlink:href="#Geist-Regular-74" x="540.099899"/>
      <use xlink:href="#Geist-Regular-69" x="579.599884"/>
      <use xlink:href="#Geist-Regular-6d" x="603.999878"/>
      <use xlink:href="#Geist-Regular-65" x="691.69986"/>
     </g>
    </g>
   </g>
   <g id="matplotlib.axis_6">
    <g id="ytick_17">
     <g id="line2d_57">
      <path d="M 1168.05 530.82 
L 1715.04 530.82 
" clip-path="url(#p07f55566b7)" style="fill: none; stroke: #cccccc; stroke-linecap: round"/>
     </g>
    </g>
    <g id="ytick_18">
     <g id="line2d_58">
      <path d="M 1168.05 470.184365 
L 1715.04 470.184365 
" clip-path="url(#p07f55566b7)" style="fill: none; stroke: #cccccc; stroke-linecap: round"/>
     </g>
    </g>
    <g id="ytick_19">
     <g id="line2d_59">
      <path d="M 1168.05 409.548731 
L 1715.04 409.548731 
" clip-path="url(#p07f55566b7)" style="fill: none; stroke: #cccccc; stroke-linecap: round"/>
     </g>
    </g>
    <g id="ytick_20">
     <g id="line2d_60">
      <path d="M 1168.05 348.913096 
L 1715.04 348.913096 
" clip-path="url(#p07f55566b7)" style="fill: none; stroke: #cccccc; stroke-linecap: round"/>
     </g>
    </g>
    <g id="ytick_21">
     <g id="line2d_61">
      <path d="M 1168.05 288.277461 
L 1715.04 288.277461 
" clip-path="url(#p07f55566b7)" style="fill: none; stroke: #cccccc; stroke-linecap: round"/>
     </g>
    </g>
    <g id="ytick_22">
     <g id="line2d_62">
      <path d="M 1168.05 227.641827 
L 1715.04 227.641827 
" clip-path="url(#p07f55566b7)" style="fill: none; stroke: #cccccc; stroke-linecap: round"/>
     </g>
    </g>
    <g id="ytick_23">
     <g id="line2d_63">
      <path d="M 1168.05 167.006192 
L 1715.04 167.006192 
" clip-path="url(#p07f55566b7)" style="fill: none; stroke: #cccccc; stroke-linecap: round"/>
     </g>
    </g>
    <g id="ytick_24">
     <g id="line2d_64">
      <path d="M 1168.05 106.370557 
L 1715.04 106.370557 
" clip-path="url(#p07f55566b7)" style="fill: none; stroke: #cccccc; stroke-linecap: round"/>
     </g>
    </g>
   </g>
   <g id="patch_17">
    <path d="M 1209.07425 446.975998 
L 1263.77325 446.975998 
L 1263.77325 445.297725 
L 1209.07425 445.297725 
L 1209.07425 446.975998 
z
" clip-path="url(#p07f55566b7)" style="fill: #5875a4; stroke: #4c4c4c; stroke-linejoin: miter"/>
   </g>
   <g id="line2d_65">
    <path d="M 1236.42375 446.975998 
L 1236.42375 447.414035 
" clip-path="url(#p07f55566b7)" style="fill: none; stroke: #4c4c4c"/>
   </g>
   <g id="line2d_66">
    <path d="M 1236.42375 445.297725 
L 1236.42375 443.288634 
" clip-path="url(#p07f55566b7)" style="fill: none; stroke: #4c4c4c"/>
   </g>
   <g id="line2d_67">
    <path d="M 1222.749 447.414035 
L 1250.0985 447.414035 
" clip-path="url(#p07f55566b7)" style="fill: none; stroke: #4c4c4c; stroke-linecap: round"/>
   </g>
   <g id="line2d_68">
    <path d="M 1222.749 443.288634 
L 1250.0985 443.288634 
" clip-path="url(#p07f55566b7)" style="fill: none; stroke: #4c4c4c; stroke-linecap: round"/>
   </g>
   <g id="patch_18">
    <path d="M 1345.82175 446.667055 
L 1400.52075 446.667055 
L 1400.52075 444.565375 
L 1345.82175 444.565375 
L 1345.82175 446.667055 
z
" clip-path="url(#p07f55566b7)" style="fill: #cc8963; stroke: #5b5b5b; stroke-linejoin: miter"/>
   </g>
   <g id="line2d_69">
    <path d="M 1373.17125 446.667055 
L 1373.17125 447.569449 
" clip-path="url(#p07f55566b7)" style="fill: none; stroke: #5b5b5b"/>
   </g>
   <g id="line2d_70">
    <path d="M 1373.17125 444.565375 
L 1373.17125 443.187435 
" clip-path="url(#p07f55566b7)" style="fill: none; stroke: #5b5b5b"/>
   </g>
   <g id="line2d_71">
    <path d="M 1359.4965 447.569449 
L 1386.846 447.569449 
" clip-path="url(#p07f55566b7)" style="fill: none; stroke: #5b5b5b; stroke-linecap: round"/>
   </g>
   <g id="line2d_72">
    <path d="M 1359.4965 443.187435 
L 1386.846 443.187435 
" clip-path="url(#p07f55566b7)" style="fill: none; stroke: #5b5b5b; stroke-linecap: round"/>
   </g>
   <g id="patch_19">
    <path d="M 1482.56925 412.939024 
L 1537.26825 412.939024 
L 1537.26825 409.170119 
L 1482.56925 409.170119 
L 1482.56925 412.939024 
z
" clip-path="url(#p07f55566b7)" style="fill: #5f9e6e; stroke: #4c4c4c; stroke-linejoin: miter"/>
   </g>
   <g id="line2d_73">
    <path d="M 1509.91875 412.939024 
L 1509.91875 413.475384 
" clip-path="url(#p07f55566b7)" style="fill: none; stroke: #4c4c4c"/>
   </g>
   <g id="line2d_74">
    <path d="M 1509.91875 409.170119 
L 1509.91875 406.059653 
" clip-path="url(#p07f55566b7)" style="fill: none; stroke: #4c4c4c"/>
   </g>
   <g id="line2d_75">
    <path d="M 1496.244 413.475384 
L 1523.5935 413.475384 
" clip-path="url(#p07f55566b7)" style="fill: none; stroke: #4c4c4c; stroke-linecap: round"/>
   </g>
   <g id="line2d_76">
    <path d="M 1496.244 406.059653 
L 1523.5935 406.059653 
" clip-path="url(#p07f55566b7)" style="fill: none; stroke: #4c4c4c; stroke-linecap: round"/>
   </g>
   <g id="patch_20">
    <path d="M 1619.31675 414.095182 
L 1674.01575 414.095182 
L 1674.01575 412.1786 
L 1619.31675 412.1786 
L 1619.31675 414.095182 
z
" clip-path="url(#p07f55566b7)" style="fill: #b55d60; stroke: #525252; stroke-linejoin: miter"/>
   </g>
   <g id="line2d_77">
    <path d="M 1646.66625 414.095182 
L 1646.66625 415.378554 
" clip-path="url(#p07f55566b7)" style="fill: none; stroke: #525252"/>
   </g>
   <g id="line2d_78">
    <path d="M 1646.66625 412.1786 
L 1646.66625 409.509914 
" clip-path="url(#p07f55566b7)" style="fill: none; stroke: #525252"/>
   </g>
   <g id="line2d_79">
    <path d="M 1632.9915 415.378554 
L 1660.341 415.378554 
" clip-path="url(#p07f55566b7)" style="fill: none; stroke: #525252; stroke-linecap: round"/>
   </g>
   <g id="line2d_80">
    <path d="M 1632.9915 409.509914 
L 1660.341 409.509914 
" clip-path="url(#p07f55566b7)" style="fill: none; stroke: #525252; stroke-linecap: round"/>
   </g>
   <g id="line2d_81">
    <path d="M 1209.07425 445.70847 
L 1263.77325 445.70847 
" clip-path="url(#p07f55566b7)" style="fill: none; stroke: #4c4c4c"/>
   </g>
   <g id="line2d_82">
    <path d="M 1345.82175 445.917474 
L 1400.52075 445.917474 
" clip-path="url(#p07f55566b7)" style="fill: none; stroke: #5b5b5b"/>
   </g>
   <g id="line2d_83">
    <path d="M 1482.56925 410.637129 
L 1537.26825 410.637129 
" clip-path="url(#p07f55566b7)" style="fill: none; stroke: #4c4c4c"/>
   </g>
   <g id="line2d_84">
    <path d="M 1619.31675 413.394387 
L 1674.01575 413.394387 
" clip-path="url(#p07f55566b7)" style="fill: none; stroke: #525252"/>
   </g>
   <g id="patch_21">
    <path d="M 1168.05 530.82 
L 1168.05 57.6 
" style="fill: none; stroke: #cccccc; stroke-width: 1.25; stroke-linejoin: miter; stroke-linecap: square"/>
   </g>
   <g id="patch_22">
    <path d="M 1168.05 530.82 
L 1715.04 530.82 
" style="fill: none; stroke: #cccccc; stroke-width: 1.25; stroke-linejoin: miter; stroke-linecap: square"/>
   </g>
   <g id="text_27">
    <!-- Mode = multi-process -->
    <g style="fill: #262626" transform="translate(1379.62875 51.6) scale(0.12 -0.12)">
     <defs>
      <path id="Geist-Regular-70" d="M 512 3392 
L 1011 3392 
L 1018 2874 
Q 1171 3162 1440 3315 
Q 1709 3469 2061 3469 
Q 2547 3469 2876 3229 
Q 3206 2989 3366 2585 
Q 3526 2182 3526 1696 
Q 3526 1210 3366 806 
Q 3206 403 2876 163 
Q 2547 -77 2061 -77 
Q 1728 -77 1456 64 
Q 1184 205 1050 448 
L 1050 -960 
L 512 -960 
L 512 3392 
z
M 2010 435 
Q 2451 435 2707 768 
Q 2963 1101 2963 1696 
Q 2963 2291 2707 2624 
Q 2451 2957 2010 2957 
Q 1562 2957 1306 2633 
Q 1050 2310 1050 1696 
Q 1050 1082 1302 758 
Q 1555 435 2010 435 
z
" transform="scale(0.015625)"/>
     </defs>
     <use xlink:href="#Geist-Regular-4d"/>
     <use xlink:href="#Geist-Regular-6f" x="87.699982"/>
     <use xlink:href="#Geist-Regular-64" x="145.599976"/>
     <use xlink:href="#Geist-Regular-65" x="205.399963"/>
     <use xlink:href="#Geist-Regular-20" x="262.09996"/>
     <use xlink:href="#Geist-Regular-3d" x="287.099945"/>
     <use xlink:href="#Geist-Regular-20" x="353.09993"/>
     <use xlink:href="#Geist-Regular-6d" x="378.099915"/>
     <use xlink:href="#Geist-Regular-75" x="465.799896"/>
     <use xlink:href="#Geist-Regular-6c" x="523.299881"/>
     <use xlink:href="#Geist-Regular-74" x="551.699875"/>
     <use xlink:href="#Geist-Regular-69" x="591.19986"/>
     <use xlink:href="#Geist-Regular-2d" x="615.599854"/>
     <use xlink:href="#Geist-Regular-70" x="658.099838"/>
     <use xlink:href="#Geist-Regular-72" x="717.899826"/>
     <use xlink:href="#Geist-Regular-6f" x="756.099823"/>
     <use xlink:href="#Geist-Regular-63" x="813.999817"/>
     <use xlink:href="#Geist-Regular-65" x="869.199814"/>
     <use xlink:href="#Geist-Regular-73" x="925.899811"/>
     <use xlink:href="#Geist-Regular-73" x="978.899796"/>
    </g>
   </g>
  </g>
  <g id="text_28">
   <!-- GIL Performance Comparison (Apple M3 Pro) -->
   <g style="fill: #262626" transform="translate(713.071125 22.32) scale(0.144 -0.144)">
    <defs>
     <path id="Geist-Regular-47" d="M 2342 -102 
Q 1715 -102 1257 202 
Q 800 506 557 1043 
Q 314 1581 314 2266 
Q 314 2950 560 3491 
Q 806 4032 1267 4339 
Q 1728 4646 2355 4646 
Q 3130 4646 3584 4236 
Q 4038 3827 4173 3149 
L 3597 3110 
Q 3398 4109 2355 4109 
Q 1619 4109 1254 3587 
Q 890 3066 890 2266 
Q 890 1440 1258 937 
Q 1626 435 2355 435 
Q 2746 435 3043 614 
Q 3341 794 3504 1101 
Q 3667 1408 3674 1773 
L 2368 1773 
L 2368 2298 
L 4186 2298 
L 4186 0 
L 3776 0 
L 3750 762 
Q 3584 378 3193 138 
Q 2803 -102 2342 -102 
z
" transform="scale(0.015625)"/>
     <path id="Geist-Regular-49" d="M 589 4544 
L 1139 4544 
L 1139 0 
L 589 0 
L 589 4544 
z
" transform="scale(0.015625)"/>
     <path id="Geist-Regular-4c" d="M 589 4544 
L 1139 4544 
L 1139 538 
L 3411 538 
L 3411 0 
L 589 0 
L 589 4544 
z
" transform="scale(0.015625)"/>
     <path id="Geist-Regular-66" d="M 845 3699 
Q 845 4090 1069 4317 
Q 1293 4544 1741 4544 
L 2278 4544 
L 2278 4070 
L 1779 4070 
Q 1581 4070 1481 3964 
Q 1382 3859 1382 3661 
L 1382 3392 
L 2234 3392 
L 2234 2918 
L 1382 2918 
L 1382 0 
L 845 0 
L 845 2918 
L 384 2918 
L 384 3392 
L 845 3392 
L 845 3699 
z
" transform="scale(0.015625)"/>
     <path id="Geist-Regular-43" d="M 2355 -102 
Q 1747 -102 1286 182 
Q 826 467 570 1004 
Q 314 1542 314 2266 
Q 314 2989 570 3529 
Q 826 4070 1286 4358 
Q 1747 4646 2355 4646 
Q 3155 4646 3619 4243 
Q 4083 3840 4230 3098 
L 3648 3059 
Q 3552 3558 3229 3833 
Q 2906 4109 2355 4109 
Q 1920 4109 1587 3888 
Q 1254 3667 1072 3251 
Q 890 2835 890 2266 
Q 890 1696 1072 1283 
Q 1254 870 1587 652 
Q 1920 435 2355 435 
Q 2938 435 3267 736 
Q 3597 1037 3686 1587 
L 4269 1549 
Q 4141 787 3645 342 
Q 3149 -102 2355 -102 
z
" transform="scale(0.015625)"/>
     <path id="Geist-Regular-41" d="M 1773 4544 
L 2515 4544 
L 4154 0 
L 3552 0 
L 3098 1293 
L 1190 1293 
L 736 0 
L 134 0 
L 1773 4544 
z
M 2912 1830 
L 2144 4064 
L 1376 1830 
L 2912 1830 
z
" transform="scale(0.015625)"/>
    </defs>
    <use xlink:href="#Geist-Regular-47"/>
    <use xlink:href="#Geist-Regular-49" x="70.799988"/>
    <use xlink:href="#Geist-Regular-4c" x="97.799973"/>
    <use xlink:href="#Geist-Regular-20" x="155.799957"/>
    <use xlink:href="#Geist-Regular-50" x="180.799942"/>
    <use xlink:href="#Geist-Regular-65" x="245.799927"/>
    <use xlink:href="#Geist-Regular-72" x="302.499924"/>
    <use xlink:href="#Geist-Regular-66" x="340.699921"/>
    <use xlink:href="#Geist-Regular-6f" x="380.499908"/>
    <use xlink:href="#Geist-Regular-72" x="438.399902"/>
    <use xlink:href="#Geist-Regular-6d" x="476.599899"/>
    <use xlink:href="#Geist-Regular-61" x="564.299881"/>
    <use xlink:href="#Geist-Regular-6e" x="621.299866"/>
    <use xlink:href="#Geist-Regular-63" x="679.399857"/>
    <use xlink:href="#Geist-Regular-65" x="734.599854"/>
    <use xlink:href="#Geist-Regular-20" x="791.29985"/>
    <use xlink:href="#Geist-Regular-43" x="816.299835"/>
    <use xlink:href="#Geist-Regular-6f" x="887.399826"/>
    <use xlink:href="#Geist-Regular-6d" x="945.29982"/>
    <use xlink:href="#Geist-Regular-70" x="1032.999802"/>
    <use xlink:href="#Geist-Regular-61" x="1092.799789"/>
    <use xlink:href="#Geist-Regular-72" x="1149.799774"/>
    <use xlink:href="#Geist-Regular-69" x="1187.999771"/>
    <use xlink:href="#Geist-Regular-73" x="1212.399765"/>
    <use xlink:href="#Geist-Regular-6f" x="1265.39975"/>
    <use xlink:href="#Geist-Regular-6e" x="1323.299744"/>
    <use xlink:href="#Geist-Regular-20" x="1381.399734"/>
    <use xlink:href="#Geist-Regular-28" x="1406.399719"/>
    <use xlink:href="#Geist-Regular-41" x="1435.399704"/>
    <use xlink:href="#Geist-Regular-70" x="1502.399689"/>
    <use xlink:href="#Geist-Regular-70" x="1562.199677"/>
    <use xlink:href="#Geist-Regular-6c" x="1621.999664"/>
    <use xlink:href="#Geist-Regular-65" x="1650.399658"/>
    <use xlink:href="#Geist-Regular-20" x="1707.099655"/>
    <use xlink:href="#Geist-Regular-4d" x="1732.09964"/>
    <use xlink:href="#Geist-Regular-33" x="1819.799622"/>
    <use xlink:href="#Geist-Regular-20" x="1881.099609"/>
    <use xlink:href="#Geist-Regular-50" x="1906.099594"/>
    <use xlink:href="#Geist-Regular-72" x="1971.099579"/>
    <use xlink:href="#Geist-Regular-6f" x="2009.299576"/>
    <use xlink:href="#Geist-Regular-29" x="2067.19957"/>
   </g>
  </g>
 </g>
 <defs>
  <clipPath id="p0b69b5eadd">
   <rect x="48.15" y="57.6" width="546.99" height="473.22"/>
  </clipPath>
  <clipPath id="p75098a165c">
   <rect x="608.1" y="57.6" width="546.99" height="473.22"/>
  </clipPath>
  <clipPath id="p07f55566b7">
   <rect x="1168.05" y="57.6" width="546.99" height="473.22"/>
  </clipPath>
 </defs>
</svg>
